<svg width="317" height="18" viewBox="0 0 317 18" fill="none" xmlns="http://www.w3.org/2000/svg">
<path d="M10.322 0.235999C13.702 0.235999 16.432 2.966 16.432 6.346C16.432 9.726 13.702 12.482 10.322 12.482C6.942 12.482 4.186 9.726 4.186 6.346H7.072C7.072 8.348 8.528 9.96 10.322 9.96C12.09 9.96 13.546 8.348 13.546 6.346C13.546 4.37 12.09 2.758 10.322 2.758H3.822V17.526H0.962V0.235999H10.322ZM29.1375 12.066C29.4235 13.73 30.7235 15.004 32.3095 15.004V17.526C29.3195 17.526 26.7975 15.342 26.3035 12.482H20.4275V17.526H17.5675V0.235999H26.9275C30.3075 0.235999 33.0375 2.966 33.0375 6.346C33.0375 8.946 31.4255 11.182 29.1375 12.066ZM26.9275 9.96C28.6955 9.96 30.1515 8.348 30.1515 6.346C30.1515 4.37 28.6955 2.758 26.9275 2.758H20.4275V9.96H26.9275ZM46.9855 2.758H37.2615V5.644H43.7615V8.166H37.2615V15.004H46.9855V17.526H34.4015V0.235999H46.9855V2.758ZM62.3858 0.235999H66.8578V17.526H63.9718V4.006C63.9718 3.642 64.0498 3.278 64.1798 2.94L64.5178 2.108L64.1538 1.952L63.8418 2.732C63.7898 2.836 63.7378 2.94 63.6858 3.044L59.0578 11.39H55.8858L51.3358 3.174C51.2838 3.07 51.2318 2.966 51.1798 2.862L50.8158 1.952L50.4778 2.108L50.7898 2.94C50.9458 3.278 50.9978 3.642 50.9978 4.006V17.526H48.1378V0.235999H52.5838L56.9258 8.088C57.1598 8.504 57.2898 8.998 57.2898 9.466V9.96H57.6798V9.44C57.6798 8.946 57.8098 8.478 58.0438 8.036L62.3858 0.235999ZM71.6657 17.526H68.8058V0.235999H71.6657V17.526ZM83.5626 0.235999L90.7126 17.526H87.5926L86.2406 14.276H76.8806L75.5286 17.526H72.4346L79.5586 0.235999H83.5626ZM77.9206 11.754H85.2006L81.9766 3.928C81.8466 3.59 81.7686 3.226 81.7686 2.862L81.7426 2.03H81.3786V2.784C81.3786 3.174 81.3006 3.538 81.1446 3.902L77.9206 11.754ZM104.817 12.846V0.235999H107.703V17.526H104.817L95.015 4.682C94.833 4.422 94.677 4.162 94.573 3.85L94.183 2.68L93.819 2.81L94.235 4.006C94.313 4.292 94.365 4.604 94.365 4.916V17.526H91.505V0.235999H94.365L104.167 13.054C104.349 13.314 104.505 13.6 104.609 13.912L104.999 15.056L105.363 14.926L104.973 13.756C104.869 13.47 104.817 13.158 104.817 12.846ZM108.515 0.235999H123.621V2.758H117.511V17.526H114.625V2.758H108.515V0.235999ZM136.463 15.004H146.187V17.526H133.603V0.235999H136.463V15.004ZM143.224 0.235999H158.33V2.758H152.22V17.526H149.334V2.758H143.224V0.235999ZM166.686 0.235999C172.068 0.235999 176.41 4.11 176.41 8.868C176.41 13.652 172.874 17.526 168.506 17.526C165.126 17.526 162.37 14.77 162.37 11.39H165.256C165.256 13.392 166.712 15.004 168.506 15.004C171.288 15.004 173.55 12.248 173.55 8.868C173.55 5.488 170.482 2.758 166.686 2.758H162.006V17.526H159.146V0.235999H166.686Z" fill="#151515"/>
<path opacity="0.5" d="M207 9H316" stroke="url(#paint0_linear_2114_12680)" stroke-width="1.5" stroke-linecap="round"/>
<defs>
<linearGradient id="paint0_linear_2114_12680" x1="207" y1="8.5" x2="316" y2="8.5" gradientUnits="userSpaceOnUse">
<stop/>
<stop offset="1" stop-color="#666666" stop-opacity="0"/>
</linearGradient>
</defs>
</svg>
