<svg width="1440" height="876" viewBox="0 0 1440 876" fill="none" xmlns="http://www.w3.org/2000/svg">
<g opacity="0.1">
<mask id="path-1-inside-1_2114_8966" fill="white">
<path d="M0 0H80V80H0V0Z"/>
</mask>
<path d="M0 0V-1H-1V0H0ZM0 1H80V-1H0V1ZM1 80V0H-1V80H1Z" fill="#B7F2C6" mask="url(#path-1-inside-1_2114_8966)"/>
<mask id="path-3-inside-2_2114_8966" fill="white">
<path d="M80 0H160V80H80V0Z"/>
</mask>
<path d="M80 0V-1H79V0H80ZM80 1H160V-1H80V1ZM81 80V0H79V80H81Z" fill="#B7F2C6" mask="url(#path-3-inside-2_2114_8966)"/>
<mask id="path-5-inside-3_2114_8966" fill="white">
<path d="M160 0H240V80H160V0Z"/>
</mask>
<path d="M160 0V-1H159V0H160ZM160 1H240V-1H160V1ZM161 80V0H159V80H161Z" fill="#B7F2C6" mask="url(#path-5-inside-3_2114_8966)"/>
<mask id="path-7-inside-4_2114_8966" fill="white">
<path d="M240 0H320V80H240V0Z"/>
</mask>
<path d="M240 0V-1H239V0H240ZM240 1H320V-1H240V1ZM241 80V0H239V80H241Z" fill="#B7F2C6" mask="url(#path-7-inside-4_2114_8966)"/>
<mask id="path-9-inside-5_2114_8966" fill="white">
<path d="M320 0H400V80H320V0Z"/>
</mask>
<path d="M320 0V-1H319V0H320ZM320 1H400V-1H320V1ZM321 80V0H319V80H321Z" fill="#B7F2C6" mask="url(#path-9-inside-5_2114_8966)"/>
<mask id="path-11-inside-6_2114_8966" fill="white">
<path d="M400 0H480V80H400V0Z"/>
</mask>
<path d="M400 0V-1H399V0H400ZM400 1H480V-1H400V1ZM401 80V0H399V80H401Z" fill="#B7F2C6" mask="url(#path-11-inside-6_2114_8966)"/>
<mask id="path-13-inside-7_2114_8966" fill="white">
<path d="M480 0H560V80H480V0Z"/>
</mask>
<path d="M480 0V-1H479V0H480ZM480 1H560V-1H480V1ZM481 80V0H479V80H481Z" fill="#B7F2C6" mask="url(#path-13-inside-7_2114_8966)"/>
<mask id="path-15-inside-8_2114_8966" fill="white">
<path d="M560 0H640V80H560V0Z"/>
</mask>
<path d="M560 0V-1H559V0H560ZM560 1H640V-1H560V1ZM561 80V0H559V80H561Z" fill="#B7F2C6" mask="url(#path-15-inside-8_2114_8966)"/>
<mask id="path-17-inside-9_2114_8966" fill="white">
<path d="M640 0H720V80H640V0Z"/>
</mask>
<path d="M640 0V-1H639V0H640ZM640 1H720V-1H640V1ZM641 80V0H639V80H641Z" fill="#B7F2C6" mask="url(#path-17-inside-9_2114_8966)"/>
<mask id="path-19-inside-10_2114_8966" fill="white">
<path d="M720 0H800V80H720V0Z"/>
</mask>
<path d="M720 0V-1H719V0H720ZM720 1H800V-1H720V1ZM721 80V0H719V80H721Z" fill="#B7F2C6" mask="url(#path-19-inside-10_2114_8966)"/>
<mask id="path-21-inside-11_2114_8966" fill="white">
<path d="M800 0H880V80H800V0Z"/>
</mask>
<path d="M800 0V-1H799V0H800ZM800 1H880V-1H800V1ZM801 80V0H799V80H801Z" fill="#B7F2C6" mask="url(#path-21-inside-11_2114_8966)"/>
<mask id="path-23-inside-12_2114_8966" fill="white">
<path d="M880 0H960V80H880V0Z"/>
</mask>
<path d="M880 0V-1H879V0H880ZM880 1H960V-1H880V1ZM881 80V0H879V80H881Z" fill="#B7F2C6" mask="url(#path-23-inside-12_2114_8966)"/>
<mask id="path-25-inside-13_2114_8966" fill="white">
<path d="M960 0H1040V80H960V0Z"/>
</mask>
<path d="M960 0V-1H959V0H960ZM960 1H1040V-1H960V1ZM961 80V0H959V80H961Z" fill="#B7F2C6" mask="url(#path-25-inside-13_2114_8966)"/>
<mask id="path-27-inside-14_2114_8966" fill="white">
<path d="M1040 0H1120V80H1040V0Z"/>
</mask>
<path d="M1040 0V-1H1039V0H1040ZM1040 1H1120V-1H1040V1ZM1041 80V0H1039V80H1041Z" fill="#B7F2C6" mask="url(#path-27-inside-14_2114_8966)"/>
<mask id="path-29-inside-15_2114_8966" fill="white">
<path d="M1120 0H1200V80H1120V0Z"/>
</mask>
<path d="M1120 0V-1H1119V0H1120ZM1120 1H1200V-1H1120V1ZM1121 80V0H1119V80H1121Z" fill="#B7F2C6" mask="url(#path-29-inside-15_2114_8966)"/>
<mask id="path-31-inside-16_2114_8966" fill="white">
<path d="M1200 0H1280V80H1200V0Z"/>
</mask>
<path d="M1200 0V-1H1199V0H1200ZM1200 1H1280V-1H1200V1ZM1201 80V0H1199V80H1201Z" fill="#B7F2C6" mask="url(#path-31-inside-16_2114_8966)"/>
<mask id="path-33-inside-17_2114_8966" fill="white">
<path d="M1280 0H1360V80H1280V0Z"/>
</mask>
<path d="M1280 0V-1H1279V0H1280ZM1280 1H1360V-1H1280V1ZM1281 80V0H1279V80H1281Z" fill="#B7F2C6" mask="url(#path-33-inside-17_2114_8966)"/>
<mask id="path-35-inside-18_2114_8966" fill="white">
<path d="M1360 0H1440V80H1360V0Z"/>
</mask>
<path d="M1360 0V-1H1359V0H1360ZM1440 0H1441V-1H1440V0ZM1360 1H1440V-1H1360V1ZM1439 0V80H1441V0H1439ZM1361 80V0H1359V80H1361Z" fill="#B7F2C6" mask="url(#path-35-inside-18_2114_8966)"/>
<mask id="path-37-inside-19_2114_8966" fill="white">
<path d="M0 80H80V160H0V80Z"/>
</mask>
<path d="M0 80V79H-1V80H0ZM0 81H80V79H0V81ZM1 160V80H-1V160H1Z" fill="#B7F2C6" mask="url(#path-37-inside-19_2114_8966)"/>
<mask id="path-39-inside-20_2114_8966" fill="white">
<path d="M80 80H160V160H80V80Z"/>
</mask>
<path d="M80 80V79H79V80H80ZM80 81H160V79H80V81ZM81 160V80H79V160H81Z" fill="#B7F2C6" mask="url(#path-39-inside-20_2114_8966)"/>
<mask id="path-41-inside-21_2114_8966" fill="white">
<path d="M160 80H240V160H160V80Z"/>
</mask>
<path d="M160 80V79H159V80H160ZM160 81H240V79H160V81ZM161 160V80H159V160H161Z" fill="#B7F2C6" mask="url(#path-41-inside-21_2114_8966)"/>
<mask id="path-43-inside-22_2114_8966" fill="white">
<path d="M240 80H320V160H240V80Z"/>
</mask>
<path d="M240 80V79H239V80H240ZM240 81H320V79H240V81ZM241 160V80H239V160H241Z" fill="#B7F2C6" mask="url(#path-43-inside-22_2114_8966)"/>
<mask id="path-45-inside-23_2114_8966" fill="white">
<path d="M320 80H400V160H320V80Z"/>
</mask>
<path d="M320 80V79H319V80H320ZM320 81H400V79H320V81ZM321 160V80H319V160H321Z" fill="#B7F2C6" mask="url(#path-45-inside-23_2114_8966)"/>
<mask id="path-47-inside-24_2114_8966" fill="white">
<path d="M400 80H480V160H400V80Z"/>
</mask>
<path d="M400 80V79H399V80H400ZM400 81H480V79H400V81ZM401 160V80H399V160H401Z" fill="#B7F2C6" mask="url(#path-47-inside-24_2114_8966)"/>
<mask id="path-49-inside-25_2114_8966" fill="white">
<path d="M480 80H560V160H480V80Z"/>
</mask>
<path d="M480 80V79H479V80H480ZM480 81H560V79H480V81ZM481 160V80H479V160H481Z" fill="#B7F2C6" mask="url(#path-49-inside-25_2114_8966)"/>
<mask id="path-51-inside-26_2114_8966" fill="white">
<path d="M560 80H640V160H560V80Z"/>
</mask>
<path d="M560 80V79H559V80H560ZM560 81H640V79H560V81ZM561 160V80H559V160H561Z" fill="#B7F2C6" mask="url(#path-51-inside-26_2114_8966)"/>
<mask id="path-53-inside-27_2114_8966" fill="white">
<path d="M640 80H720V160H640V80Z"/>
</mask>
<path d="M640 80V79H639V80H640ZM640 81H720V79H640V81ZM641 160V80H639V160H641Z" fill="#B7F2C6" mask="url(#path-53-inside-27_2114_8966)"/>
<mask id="path-55-inside-28_2114_8966" fill="white">
<path d="M720 80H800V160H720V80Z"/>
</mask>
<path d="M720 80V79H719V80H720ZM720 81H800V79H720V81ZM721 160V80H719V160H721Z" fill="#B7F2C6" mask="url(#path-55-inside-28_2114_8966)"/>
<mask id="path-57-inside-29_2114_8966" fill="white">
<path d="M800 80H880V160H800V80Z"/>
</mask>
<path d="M800 80V79H799V80H800ZM800 81H880V79H800V81ZM801 160V80H799V160H801Z" fill="#B7F2C6" mask="url(#path-57-inside-29_2114_8966)"/>
<mask id="path-59-inside-30_2114_8966" fill="white">
<path d="M880 80H960V160H880V80Z"/>
</mask>
<path d="M880 80V79H879V80H880ZM880 81H960V79H880V81ZM881 160V80H879V160H881Z" fill="#B7F2C6" mask="url(#path-59-inside-30_2114_8966)"/>
<mask id="path-61-inside-31_2114_8966" fill="white">
<path d="M960 80H1040V160H960V80Z"/>
</mask>
<path d="M960 80V79H959V80H960ZM960 81H1040V79H960V81ZM961 160V80H959V160H961Z" fill="#B7F2C6" mask="url(#path-61-inside-31_2114_8966)"/>
<mask id="path-63-inside-32_2114_8966" fill="white">
<path d="M1040 80H1120V160H1040V80Z"/>
</mask>
<path d="M1040 80V79H1039V80H1040ZM1040 81H1120V79H1040V81ZM1041 160V80H1039V160H1041Z" fill="#B7F2C6" mask="url(#path-63-inside-32_2114_8966)"/>
<mask id="path-65-inside-33_2114_8966" fill="white">
<path d="M1120 80H1200V160H1120V80Z"/>
</mask>
<path d="M1120 80V79H1119V80H1120ZM1120 81H1200V79H1120V81ZM1121 160V80H1119V160H1121Z" fill="#B7F2C6" mask="url(#path-65-inside-33_2114_8966)"/>
<mask id="path-67-inside-34_2114_8966" fill="white">
<path d="M1200 80H1280V160H1200V80Z"/>
</mask>
<path d="M1200 80V79H1199V80H1200ZM1200 81H1280V79H1200V81ZM1201 160V80H1199V160H1201Z" fill="#B7F2C6" mask="url(#path-67-inside-34_2114_8966)"/>
<mask id="path-69-inside-35_2114_8966" fill="white">
<path d="M1280 80H1360V160H1280V80Z"/>
</mask>
<path d="M1280 80V79H1279V80H1280ZM1280 81H1360V79H1280V81ZM1281 160V80H1279V160H1281Z" fill="#B7F2C6" mask="url(#path-69-inside-35_2114_8966)"/>
<mask id="path-71-inside-36_2114_8966" fill="white">
<path d="M1360 80H1440V160H1360V80Z"/>
</mask>
<path d="M1360 80V79H1359V80H1360ZM1440 80H1441V79H1440V80ZM1360 81H1440V79H1360V81ZM1439 80V160H1441V80H1439ZM1361 160V80H1359V160H1361Z" fill="#B7F2C6" mask="url(#path-71-inside-36_2114_8966)"/>
<mask id="path-73-inside-37_2114_8966" fill="white">
<path d="M0 160H80V240H0V160Z"/>
</mask>
<path d="M0 160V159H-1V160H0ZM0 161H80V159H0V161ZM1 240V160H-1V240H1Z" fill="#B7F2C6" mask="url(#path-73-inside-37_2114_8966)"/>
<mask id="path-75-inside-38_2114_8966" fill="white">
<path d="M80 160H160V240H80V160Z"/>
</mask>
<path d="M80 160V159H79V160H80ZM80 161H160V159H80V161ZM81 240V160H79V240H81Z" fill="#B7F2C6" mask="url(#path-75-inside-38_2114_8966)"/>
<mask id="path-77-inside-39_2114_8966" fill="white">
<path d="M160 160H240V240H160V160Z"/>
</mask>
<path d="M160 160V159H159V160H160ZM160 161H240V159H160V161ZM161 240V160H159V240H161Z" fill="#B7F2C6" mask="url(#path-77-inside-39_2114_8966)"/>
<mask id="path-79-inside-40_2114_8966" fill="white">
<path d="M240 160H320V240H240V160Z"/>
</mask>
<path d="M240 160V159H239V160H240ZM240 161H320V159H240V161ZM241 240V160H239V240H241Z" fill="#B7F2C6" mask="url(#path-79-inside-40_2114_8966)"/>
<mask id="path-81-inside-41_2114_8966" fill="white">
<path d="M320 160H400V240H320V160Z"/>
</mask>
<path d="M320 160V159H319V160H320ZM320 161H400V159H320V161ZM321 240V160H319V240H321Z" fill="#B7F2C6" mask="url(#path-81-inside-41_2114_8966)"/>
<mask id="path-83-inside-42_2114_8966" fill="white">
<path d="M400 160H480V240H400V160Z"/>
</mask>
<path d="M400 160V159H399V160H400ZM400 161H480V159H400V161ZM401 240V160H399V240H401Z" fill="#B7F2C6" mask="url(#path-83-inside-42_2114_8966)"/>
<mask id="path-85-inside-43_2114_8966" fill="white">
<path d="M480 160H560V240H480V160Z"/>
</mask>
<path d="M480 160V159H479V160H480ZM480 161H560V159H480V161ZM481 240V160H479V240H481Z" fill="#B7F2C6" mask="url(#path-85-inside-43_2114_8966)"/>
<mask id="path-87-inside-44_2114_8966" fill="white">
<path d="M560 160H640V240H560V160Z"/>
</mask>
<path d="M560 160V159H559V160H560ZM560 161H640V159H560V161ZM561 240V160H559V240H561Z" fill="#B7F2C6" mask="url(#path-87-inside-44_2114_8966)"/>
<mask id="path-89-inside-45_2114_8966" fill="white">
<path d="M640 160H720V240H640V160Z"/>
</mask>
<path d="M640 160V159H639V160H640ZM640 161H720V159H640V161ZM641 240V160H639V240H641Z" fill="#B7F2C6" mask="url(#path-89-inside-45_2114_8966)"/>
<mask id="path-91-inside-46_2114_8966" fill="white">
<path d="M720 160H800V240H720V160Z"/>
</mask>
<path d="M720 160V159H719V160H720ZM720 161H800V159H720V161ZM721 240V160H719V240H721Z" fill="#B7F2C6" mask="url(#path-91-inside-46_2114_8966)"/>
<mask id="path-93-inside-47_2114_8966" fill="white">
<path d="M800 160H880V240H800V160Z"/>
</mask>
<path d="M800 160V159H799V160H800ZM800 161H880V159H800V161ZM801 240V160H799V240H801Z" fill="#B7F2C6" mask="url(#path-93-inside-47_2114_8966)"/>
<mask id="path-95-inside-48_2114_8966" fill="white">
<path d="M880 160H960V240H880V160Z"/>
</mask>
<path d="M880 160V159H879V160H880ZM880 161H960V159H880V161ZM881 240V160H879V240H881Z" fill="#B7F2C6" mask="url(#path-95-inside-48_2114_8966)"/>
<mask id="path-97-inside-49_2114_8966" fill="white">
<path d="M960 160H1040V240H960V160Z"/>
</mask>
<path d="M960 160V159H959V160H960ZM960 161H1040V159H960V161ZM961 240V160H959V240H961Z" fill="#B7F2C6" mask="url(#path-97-inside-49_2114_8966)"/>
<mask id="path-99-inside-50_2114_8966" fill="white">
<path d="M1040 160H1120V240H1040V160Z"/>
</mask>
<path d="M1040 160V159H1039V160H1040ZM1040 161H1120V159H1040V161ZM1041 240V160H1039V240H1041Z" fill="#B7F2C6" mask="url(#path-99-inside-50_2114_8966)"/>
<mask id="path-101-inside-51_2114_8966" fill="white">
<path d="M1120 160H1200V240H1120V160Z"/>
</mask>
<path d="M1120 160V159H1119V160H1120ZM1120 161H1200V159H1120V161ZM1121 240V160H1119V240H1121Z" fill="#B7F2C6" mask="url(#path-101-inside-51_2114_8966)"/>
<mask id="path-103-inside-52_2114_8966" fill="white">
<path d="M1200 160H1280V240H1200V160Z"/>
</mask>
<path d="M1200 160V159H1199V160H1200ZM1200 161H1280V159H1200V161ZM1201 240V160H1199V240H1201Z" fill="#B7F2C6" mask="url(#path-103-inside-52_2114_8966)"/>
<mask id="path-105-inside-53_2114_8966" fill="white">
<path d="M1280 160H1360V240H1280V160Z"/>
</mask>
<path d="M1280 160V159H1279V160H1280ZM1280 161H1360V159H1280V161ZM1281 240V160H1279V240H1281Z" fill="#B7F2C6" mask="url(#path-105-inside-53_2114_8966)"/>
<mask id="path-107-inside-54_2114_8966" fill="white">
<path d="M1360 160H1440V240H1360V160Z"/>
</mask>
<path d="M1360 160V159H1359V160H1360ZM1440 160H1441V159H1440V160ZM1360 161H1440V159H1360V161ZM1439 160V240H1441V160H1439ZM1361 240V160H1359V240H1361Z" fill="#B7F2C6" mask="url(#path-107-inside-54_2114_8966)"/>
<mask id="path-109-inside-55_2114_8966" fill="white">
<path d="M0 240H80V320H0V240Z"/>
</mask>
<path d="M0 240V239H-1V240H0ZM0 241H80V239H0V241ZM1 320V240H-1V320H1Z" fill="#B7F2C6" mask="url(#path-109-inside-55_2114_8966)"/>
<mask id="path-111-inside-56_2114_8966" fill="white">
<path d="M80 240H160V320H80V240Z"/>
</mask>
<path d="M80 240V239H79V240H80ZM80 241H160V239H80V241ZM81 320V240H79V320H81Z" fill="#B7F2C6" mask="url(#path-111-inside-56_2114_8966)"/>
<mask id="path-113-inside-57_2114_8966" fill="white">
<path d="M160 240H240V320H160V240Z"/>
</mask>
<path d="M160 240V239H159V240H160ZM160 241H240V239H160V241ZM161 320V240H159V320H161Z" fill="#B7F2C6" mask="url(#path-113-inside-57_2114_8966)"/>
<mask id="path-115-inside-58_2114_8966" fill="white">
<path d="M240 240H320V320H240V240Z"/>
</mask>
<path d="M240 240V239H239V240H240ZM240 241H320V239H240V241ZM241 320V240H239V320H241Z" fill="#B7F2C6" mask="url(#path-115-inside-58_2114_8966)"/>
<mask id="path-117-inside-59_2114_8966" fill="white">
<path d="M320 240H400V320H320V240Z"/>
</mask>
<path d="M320 240V239H319V240H320ZM320 241H400V239H320V241ZM321 320V240H319V320H321Z" fill="#B7F2C6" mask="url(#path-117-inside-59_2114_8966)"/>
<mask id="path-119-inside-60_2114_8966" fill="white">
<path d="M400 240H480V320H400V240Z"/>
</mask>
<path d="M400 240V239H399V240H400ZM400 241H480V239H400V241ZM401 320V240H399V320H401Z" fill="#B7F2C6" mask="url(#path-119-inside-60_2114_8966)"/>
<mask id="path-121-inside-61_2114_8966" fill="white">
<path d="M480 240H560V320H480V240Z"/>
</mask>
<path d="M480 240V239H479V240H480ZM480 241H560V239H480V241ZM481 320V240H479V320H481Z" fill="#B7F2C6" mask="url(#path-121-inside-61_2114_8966)"/>
<mask id="path-123-inside-62_2114_8966" fill="white">
<path d="M560 240H640V320H560V240Z"/>
</mask>
<path d="M560 240V239H559V240H560ZM560 241H640V239H560V241ZM561 320V240H559V320H561Z" fill="#B7F2C6" mask="url(#path-123-inside-62_2114_8966)"/>
<mask id="path-125-inside-63_2114_8966" fill="white">
<path d="M640 240H720V320H640V240Z"/>
</mask>
<path d="M640 240V239H639V240H640ZM640 241H720V239H640V241ZM641 320V240H639V320H641Z" fill="#B7F2C6" mask="url(#path-125-inside-63_2114_8966)"/>
<mask id="path-127-inside-64_2114_8966" fill="white">
<path d="M720 240H800V320H720V240Z"/>
</mask>
<path d="M720 240V239H719V240H720ZM720 241H800V239H720V241ZM721 320V240H719V320H721Z" fill="#B7F2C6" mask="url(#path-127-inside-64_2114_8966)"/>
<mask id="path-129-inside-65_2114_8966" fill="white">
<path d="M800 240H880V320H800V240Z"/>
</mask>
<path d="M800 240V239H799V240H800ZM800 241H880V239H800V241ZM801 320V240H799V320H801Z" fill="#B7F2C6" mask="url(#path-129-inside-65_2114_8966)"/>
<mask id="path-131-inside-66_2114_8966" fill="white">
<path d="M880 240H960V320H880V240Z"/>
</mask>
<path d="M880 240V239H879V240H880ZM880 241H960V239H880V241ZM881 320V240H879V320H881Z" fill="#B7F2C6" mask="url(#path-131-inside-66_2114_8966)"/>
<mask id="path-133-inside-67_2114_8966" fill="white">
<path d="M960 240H1040V320H960V240Z"/>
</mask>
<path d="M960 240V239H959V240H960ZM960 241H1040V239H960V241ZM961 320V240H959V320H961Z" fill="#B7F2C6" mask="url(#path-133-inside-67_2114_8966)"/>
<mask id="path-135-inside-68_2114_8966" fill="white">
<path d="M1040 240H1120V320H1040V240Z"/>
</mask>
<path d="M1040 240V239H1039V240H1040ZM1040 241H1120V239H1040V241ZM1041 320V240H1039V320H1041Z" fill="#B7F2C6" mask="url(#path-135-inside-68_2114_8966)"/>
<mask id="path-137-inside-69_2114_8966" fill="white">
<path d="M1120 240H1200V320H1120V240Z"/>
</mask>
<path d="M1120 240V239H1119V240H1120ZM1120 241H1200V239H1120V241ZM1121 320V240H1119V320H1121Z" fill="#B7F2C6" mask="url(#path-137-inside-69_2114_8966)"/>
<mask id="path-139-inside-70_2114_8966" fill="white">
<path d="M1200 240H1280V320H1200V240Z"/>
</mask>
<path d="M1200 240V239H1199V240H1200ZM1200 241H1280V239H1200V241ZM1201 320V240H1199V320H1201Z" fill="#B7F2C6" mask="url(#path-139-inside-70_2114_8966)"/>
<mask id="path-141-inside-71_2114_8966" fill="white">
<path d="M1280 240H1360V320H1280V240Z"/>
</mask>
<path d="M1280 240V239H1279V240H1280ZM1280 241H1360V239H1280V241ZM1281 320V240H1279V320H1281Z" fill="#B7F2C6" mask="url(#path-141-inside-71_2114_8966)"/>
<mask id="path-143-inside-72_2114_8966" fill="white">
<path d="M1360 240H1440V320H1360V240Z"/>
</mask>
<path d="M1360 240V239H1359V240H1360ZM1440 240H1441V239H1440V240ZM1360 241H1440V239H1360V241ZM1439 240V320H1441V240H1439ZM1361 320V240H1359V320H1361Z" fill="#B7F2C6" mask="url(#path-143-inside-72_2114_8966)"/>
<mask id="path-145-inside-73_2114_8966" fill="white">
<path d="M0 320H80V400H0V320Z"/>
</mask>
<path d="M0 320V319H-1V320H0ZM0 321H80V319H0V321ZM1 400V320H-1V400H1Z" fill="#B7F2C6" mask="url(#path-145-inside-73_2114_8966)"/>
<mask id="path-147-inside-74_2114_8966" fill="white">
<path d="M80 320H160V400H80V320Z"/>
</mask>
<path d="M80 320V319H79V320H80ZM80 321H160V319H80V321ZM81 400V320H79V400H81Z" fill="#B7F2C6" mask="url(#path-147-inside-74_2114_8966)"/>
<mask id="path-149-inside-75_2114_8966" fill="white">
<path d="M160 320H240V400H160V320Z"/>
</mask>
<path d="M160 320V319H159V320H160ZM160 321H240V319H160V321ZM161 400V320H159V400H161Z" fill="#B7F2C6" mask="url(#path-149-inside-75_2114_8966)"/>
<mask id="path-151-inside-76_2114_8966" fill="white">
<path d="M240 320H320V400H240V320Z"/>
</mask>
<path d="M240 320V319H239V320H240ZM240 321H320V319H240V321ZM241 400V320H239V400H241Z" fill="#B7F2C6" mask="url(#path-151-inside-76_2114_8966)"/>
<mask id="path-153-inside-77_2114_8966" fill="white">
<path d="M320 320H400V400H320V320Z"/>
</mask>
<path d="M320 320V319H319V320H320ZM320 321H400V319H320V321ZM321 400V320H319V400H321Z" fill="#B7F2C6" mask="url(#path-153-inside-77_2114_8966)"/>
<mask id="path-155-inside-78_2114_8966" fill="white">
<path d="M400 320H480V400H400V320Z"/>
</mask>
<path d="M400 320V319H399V320H400ZM400 321H480V319H400V321ZM401 400V320H399V400H401Z" fill="#B7F2C6" mask="url(#path-155-inside-78_2114_8966)"/>
<mask id="path-157-inside-79_2114_8966" fill="white">
<path d="M480 320H560V400H480V320Z"/>
</mask>
<path d="M480 320V319H479V320H480ZM480 321H560V319H480V321ZM481 400V320H479V400H481Z" fill="#B7F2C6" mask="url(#path-157-inside-79_2114_8966)"/>
<mask id="path-159-inside-80_2114_8966" fill="white">
<path d="M560 320H640V400H560V320Z"/>
</mask>
<path d="M560 320V319H559V320H560ZM560 321H640V319H560V321ZM561 400V320H559V400H561Z" fill="#B7F2C6" mask="url(#path-159-inside-80_2114_8966)"/>
<mask id="path-161-inside-81_2114_8966" fill="white">
<path d="M640 320H720V400H640V320Z"/>
</mask>
<path d="M640 320V319H639V320H640ZM640 321H720V319H640V321ZM641 400V320H639V400H641Z" fill="#B7F2C6" mask="url(#path-161-inside-81_2114_8966)"/>
<mask id="path-163-inside-82_2114_8966" fill="white">
<path d="M720 320H800V400H720V320Z"/>
</mask>
<path d="M720 320V319H719V320H720ZM720 321H800V319H720V321ZM721 400V320H719V400H721Z" fill="#B7F2C6" mask="url(#path-163-inside-82_2114_8966)"/>
<mask id="path-165-inside-83_2114_8966" fill="white">
<path d="M800 320H880V400H800V320Z"/>
</mask>
<path d="M800 320V319H799V320H800ZM800 321H880V319H800V321ZM801 400V320H799V400H801Z" fill="#B7F2C6" mask="url(#path-165-inside-83_2114_8966)"/>
<mask id="path-167-inside-84_2114_8966" fill="white">
<path d="M880 320H960V400H880V320Z"/>
</mask>
<path d="M880 320V319H879V320H880ZM880 321H960V319H880V321ZM881 400V320H879V400H881Z" fill="#B7F2C6" mask="url(#path-167-inside-84_2114_8966)"/>
<mask id="path-169-inside-85_2114_8966" fill="white">
<path d="M960 320H1040V400H960V320Z"/>
</mask>
<path d="M960 320V319H959V320H960ZM960 321H1040V319H960V321ZM961 400V320H959V400H961Z" fill="#B7F2C6" mask="url(#path-169-inside-85_2114_8966)"/>
<mask id="path-171-inside-86_2114_8966" fill="white">
<path d="M1040 320H1120V400H1040V320Z"/>
</mask>
<path d="M1040 320V319H1039V320H1040ZM1040 321H1120V319H1040V321ZM1041 400V320H1039V400H1041Z" fill="#B7F2C6" mask="url(#path-171-inside-86_2114_8966)"/>
<mask id="path-173-inside-87_2114_8966" fill="white">
<path d="M1120 320H1200V400H1120V320Z"/>
</mask>
<path d="M1120 320V319H1119V320H1120ZM1120 321H1200V319H1120V321ZM1121 400V320H1119V400H1121Z" fill="#B7F2C6" mask="url(#path-173-inside-87_2114_8966)"/>
<mask id="path-175-inside-88_2114_8966" fill="white">
<path d="M1200 320H1280V400H1200V320Z"/>
</mask>
<path d="M1200 320V319H1199V320H1200ZM1200 321H1280V319H1200V321ZM1201 400V320H1199V400H1201Z" fill="#B7F2C6" mask="url(#path-175-inside-88_2114_8966)"/>
<mask id="path-177-inside-89_2114_8966" fill="white">
<path d="M1280 320H1360V400H1280V320Z"/>
</mask>
<path d="M1280 320V319H1279V320H1280ZM1280 321H1360V319H1280V321ZM1281 400V320H1279V400H1281Z" fill="#B7F2C6" mask="url(#path-177-inside-89_2114_8966)"/>
<mask id="path-179-inside-90_2114_8966" fill="white">
<path d="M1360 320H1440V400H1360V320Z"/>
</mask>
<path d="M1360 320V319H1359V320H1360ZM1440 320H1441V319H1440V320ZM1360 321H1440V319H1360V321ZM1439 320V400H1441V320H1439ZM1361 400V320H1359V400H1361Z" fill="#B7F2C6" mask="url(#path-179-inside-90_2114_8966)"/>
<mask id="path-181-inside-91_2114_8966" fill="white">
<path d="M0 400H80V480H0V400Z"/>
</mask>
<path d="M0 400V399H-1V400H0ZM0 480H-1V481H0V480ZM0 401H80V399H0V401ZM80 479H0V481H80V479ZM1 480V400H-1V480H1Z" fill="#B7F2C6" mask="url(#path-181-inside-91_2114_8966)"/>
<mask id="path-183-inside-92_2114_8966" fill="white">
<path d="M80 400H160V480H80V400Z"/>
</mask>
<path d="M80 400V399H79V400H80ZM80 480H79V481H80V480ZM80 401H160V399H80V401ZM160 479H80V481H160V479ZM81 480V400H79V480H81Z" fill="#B7F2C6" mask="url(#path-183-inside-92_2114_8966)"/>
<mask id="path-185-inside-93_2114_8966" fill="white">
<path d="M160 400H240V480H160V400Z"/>
</mask>
<path d="M160 400V399H159V400H160ZM160 480H159V481H160V480ZM160 401H240V399H160V401ZM240 479H160V481H240V479ZM161 480V400H159V480H161Z" fill="#B7F2C6" mask="url(#path-185-inside-93_2114_8966)"/>
<mask id="path-187-inside-94_2114_8966" fill="white">
<path d="M240 400H320V480H240V400Z"/>
</mask>
<path d="M240 400V399H239V400H240ZM240 480H239V481H240V480ZM240 401H320V399H240V401ZM320 479H240V481H320V479ZM241 480V400H239V480H241Z" fill="#B7F2C6" mask="url(#path-187-inside-94_2114_8966)"/>
<mask id="path-189-inside-95_2114_8966" fill="white">
<path d="M320 400H400V480H320V400Z"/>
</mask>
<path d="M320 400V399H319V400H320ZM320 480H319V481H320V480ZM320 401H400V399H320V401ZM400 479H320V481H400V479ZM321 480V400H319V480H321Z" fill="#B7F2C6" mask="url(#path-189-inside-95_2114_8966)"/>
<mask id="path-191-inside-96_2114_8966" fill="white">
<path d="M400 400H480V480H400V400Z"/>
</mask>
<path d="M400 400V399H399V400H400ZM400 480H399V481H400V480ZM400 401H480V399H400V401ZM480 479H400V481H480V479ZM401 480V400H399V480H401Z" fill="#B7F2C6" mask="url(#path-191-inside-96_2114_8966)"/>
<mask id="path-193-inside-97_2114_8966" fill="white">
<path d="M480 400H560V480H480V400Z"/>
</mask>
<path d="M480 400V399H479V400H480ZM480 480H479V481H480V480ZM480 401H560V399H480V401ZM560 479H480V481H560V479ZM481 480V400H479V480H481Z" fill="#B7F2C6" mask="url(#path-193-inside-97_2114_8966)"/>
<mask id="path-195-inside-98_2114_8966" fill="white">
<path d="M560 400H640V480H560V400Z"/>
</mask>
<path d="M560 400V399H559V400H560ZM560 480H559V481H560V480ZM560 401H640V399H560V401ZM640 479H560V481H640V479ZM561 480V400H559V480H561Z" fill="#B7F2C6" mask="url(#path-195-inside-98_2114_8966)"/>
<mask id="path-197-inside-99_2114_8966" fill="white">
<path d="M640 400H720V480H640V400Z"/>
</mask>
<path d="M640 400V399H639V400H640ZM640 480H639V481H640V480ZM640 401H720V399H640V401ZM720 479H640V481H720V479ZM641 480V400H639V480H641Z" fill="#B7F2C6" mask="url(#path-197-inside-99_2114_8966)"/>
<mask id="path-199-inside-100_2114_8966" fill="white">
<path d="M720 400H800V480H720V400Z"/>
</mask>
<path d="M720 400V399H719V400H720ZM720 480H719V481H720V480ZM720 401H800V399H720V401ZM800 479H720V481H800V479ZM721 480V400H719V480H721Z" fill="#B7F2C6" mask="url(#path-199-inside-100_2114_8966)"/>
<mask id="path-201-inside-101_2114_8966" fill="white">
<path d="M800 400H880V480H800V400Z"/>
</mask>
<path d="M800 400V399H799V400H800ZM800 480H799V481H800V480ZM800 401H880V399H800V401ZM880 479H800V481H880V479ZM801 480V400H799V480H801Z" fill="#B7F2C6" mask="url(#path-201-inside-101_2114_8966)"/>
<mask id="path-203-inside-102_2114_8966" fill="white">
<path d="M880 400H960V480H880V400Z"/>
</mask>
<path d="M880 400V399H879V400H880ZM880 480H879V481H880V480ZM880 401H960V399H880V401ZM960 479H880V481H960V479ZM881 480V400H879V480H881Z" fill="#B7F2C6" mask="url(#path-203-inside-102_2114_8966)"/>
<mask id="path-205-inside-103_2114_8966" fill="white">
<path d="M960 400H1040V480H960V400Z"/>
</mask>
<path d="M960 400V399H959V400H960ZM960 480H959V481H960V480ZM960 401H1040V399H960V401ZM1040 479H960V481H1040V479ZM961 480V400H959V480H961Z" fill="#B7F2C6" mask="url(#path-205-inside-103_2114_8966)"/>
<mask id="path-207-inside-104_2114_8966" fill="white">
<path d="M1040 400H1120V480H1040V400Z"/>
</mask>
<path d="M1040 400V399H1039V400H1040ZM1040 480H1039V481H1040V480ZM1040 401H1120V399H1040V401ZM1120 479H1040V481H1120V479ZM1041 480V400H1039V480H1041Z" fill="#B7F2C6" mask="url(#path-207-inside-104_2114_8966)"/>
<mask id="path-209-inside-105_2114_8966" fill="white">
<path d="M1120 400H1200V480H1120V400Z"/>
</mask>
<path d="M1120 400V399H1119V400H1120ZM1120 480H1119V481H1120V480ZM1120 401H1200V399H1120V401ZM1200 479H1120V481H1200V479ZM1121 480V400H1119V480H1121Z" fill="#B7F2C6" mask="url(#path-209-inside-105_2114_8966)"/>
<mask id="path-211-inside-106_2114_8966" fill="white">
<path d="M1200 400H1280V480H1200V400Z"/>
</mask>
<path d="M1200 400V399H1199V400H1200ZM1200 480H1199V481H1200V480ZM1200 401H1280V399H1200V401ZM1280 479H1200V481H1280V479ZM1201 480V400H1199V480H1201Z" fill="#B7F2C6" mask="url(#path-211-inside-106_2114_8966)"/>
<mask id="path-213-inside-107_2114_8966" fill="white">
<path d="M1280 400H1360V480H1280V400Z"/>
</mask>
<path d="M1280 400V399H1279V400H1280ZM1280 480H1279V481H1280V480ZM1280 401H1360V399H1280V401ZM1360 479H1280V481H1360V479ZM1281 480V400H1279V480H1281Z" fill="#B7F2C6" mask="url(#path-213-inside-107_2114_8966)"/>
<mask id="path-215-inside-108_2114_8966" fill="white">
<path d="M1360 400H1440V480H1360V400Z"/>
</mask>
<path d="M1360 400V399H1359V400H1360ZM1440 400H1441V399H1440V400ZM1440 480V481H1441V480H1440ZM1360 480H1359V481H1360V480ZM1360 401H1440V399H1360V401ZM1439 400V480H1441V400H1439ZM1440 479H1360V481H1440V479ZM1361 480V400H1359V480H1361Z" fill="#B7F2C6" mask="url(#path-215-inside-108_2114_8966)"/>
<mask id="path-217-inside-109_2114_8966" fill="white">
<path d="M0 480H80V560H0V480Z"/>
</mask>
<path d="M0 480V479H-1V480H0ZM0 560H-1V561H0V560ZM0 481H80V479H0V481ZM80 559H0V561H80V559ZM1 560V480H-1V560H1Z" fill="#B7F2C6" mask="url(#path-217-inside-109_2114_8966)"/>
<mask id="path-219-inside-110_2114_8966" fill="white">
<path d="M80 480H160V560H80V480Z"/>
</mask>
<path d="M80 480V479H79V480H80ZM80 560H79V561H80V560ZM80 481H160V479H80V481ZM160 559H80V561H160V559ZM81 560V480H79V560H81Z" fill="#B7F2C6" mask="url(#path-219-inside-110_2114_8966)"/>
<mask id="path-221-inside-111_2114_8966" fill="white">
<path d="M160 480H240V560H160V480Z"/>
</mask>
<path d="M160 480V479H159V480H160ZM160 560H159V561H160V560ZM160 481H240V479H160V481ZM240 559H160V561H240V559ZM161 560V480H159V560H161Z" fill="#B7F2C6" mask="url(#path-221-inside-111_2114_8966)"/>
<mask id="path-223-inside-112_2114_8966" fill="white">
<path d="M240 480H320V560H240V480Z"/>
</mask>
<path d="M240 480V479H239V480H240ZM240 560H239V561H240V560ZM240 481H320V479H240V481ZM320 559H240V561H320V559ZM241 560V480H239V560H241Z" fill="#B7F2C6" mask="url(#path-223-inside-112_2114_8966)"/>
<mask id="path-225-inside-113_2114_8966" fill="white">
<path d="M320 480H400V560H320V480Z"/>
</mask>
<path d="M320 480V479H319V480H320ZM320 560H319V561H320V560ZM320 481H400V479H320V481ZM400 559H320V561H400V559ZM321 560V480H319V560H321Z" fill="#B7F2C6" mask="url(#path-225-inside-113_2114_8966)"/>
<mask id="path-227-inside-114_2114_8966" fill="white">
<path d="M400 480H480V560H400V480Z"/>
</mask>
<path d="M400 480V479H399V480H400ZM400 560H399V561H400V560ZM400 481H480V479H400V481ZM480 559H400V561H480V559ZM401 560V480H399V560H401Z" fill="#B7F2C6" mask="url(#path-227-inside-114_2114_8966)"/>
<mask id="path-229-inside-115_2114_8966" fill="white">
<path d="M480 480H560V560H480V480Z"/>
</mask>
<path d="M480 480V479H479V480H480ZM480 560H479V561H480V560ZM480 481H560V479H480V481ZM560 559H480V561H560V559ZM481 560V480H479V560H481Z" fill="#B7F2C6" mask="url(#path-229-inside-115_2114_8966)"/>
<mask id="path-231-inside-116_2114_8966" fill="white">
<path d="M560 480H640V560H560V480Z"/>
</mask>
<path d="M560 480V479H559V480H560ZM560 560H559V561H560V560ZM560 481H640V479H560V481ZM640 559H560V561H640V559ZM561 560V480H559V560H561Z" fill="#B7F2C6" mask="url(#path-231-inside-116_2114_8966)"/>
<mask id="path-233-inside-117_2114_8966" fill="white">
<path d="M640 480H720V560H640V480Z"/>
</mask>
<path d="M640 480V479H639V480H640ZM640 560H639V561H640V560ZM640 481H720V479H640V481ZM720 559H640V561H720V559ZM641 560V480H639V560H641Z" fill="#B7F2C6" mask="url(#path-233-inside-117_2114_8966)"/>
<mask id="path-235-inside-118_2114_8966" fill="white">
<path d="M720 480H800V560H720V480Z"/>
</mask>
<path d="M720 480V479H719V480H720ZM720 560H719V561H720V560ZM720 481H800V479H720V481ZM800 559H720V561H800V559ZM721 560V480H719V560H721Z" fill="#B7F2C6" mask="url(#path-235-inside-118_2114_8966)"/>
<mask id="path-237-inside-119_2114_8966" fill="white">
<path d="M800 480H880V560H800V480Z"/>
</mask>
<path d="M800 480V479H799V480H800ZM800 560H799V561H800V560ZM800 481H880V479H800V481ZM880 559H800V561H880V559ZM801 560V480H799V560H801Z" fill="#B7F2C6" mask="url(#path-237-inside-119_2114_8966)"/>
<mask id="path-239-inside-120_2114_8966" fill="white">
<path d="M880 480H960V560H880V480Z"/>
</mask>
<path d="M880 480V479H879V480H880ZM880 560H879V561H880V560ZM880 481H960V479H880V481ZM960 559H880V561H960V559ZM881 560V480H879V560H881Z" fill="#B7F2C6" mask="url(#path-239-inside-120_2114_8966)"/>
<mask id="path-241-inside-121_2114_8966" fill="white">
<path d="M960 480H1040V560H960V480Z"/>
</mask>
<path d="M960 480V479H959V480H960ZM960 560H959V561H960V560ZM960 481H1040V479H960V481ZM1040 559H960V561H1040V559ZM961 560V480H959V560H961Z" fill="#B7F2C6" mask="url(#path-241-inside-121_2114_8966)"/>
<mask id="path-243-inside-122_2114_8966" fill="white">
<path d="M1040 480H1120V560H1040V480Z"/>
</mask>
<path d="M1040 480V479H1039V480H1040ZM1040 560H1039V561H1040V560ZM1040 481H1120V479H1040V481ZM1120 559H1040V561H1120V559ZM1041 560V480H1039V560H1041Z" fill="#B7F2C6" mask="url(#path-243-inside-122_2114_8966)"/>
<mask id="path-245-inside-123_2114_8966" fill="white">
<path d="M1120 480H1200V560H1120V480Z"/>
</mask>
<path d="M1120 480V479H1119V480H1120ZM1120 560H1119V561H1120V560ZM1120 481H1200V479H1120V481ZM1200 559H1120V561H1200V559ZM1121 560V480H1119V560H1121Z" fill="#B7F2C6" mask="url(#path-245-inside-123_2114_8966)"/>
<mask id="path-247-inside-124_2114_8966" fill="white">
<path d="M1200 480H1280V560H1200V480Z"/>
</mask>
<path d="M1200 480V479H1199V480H1200ZM1200 560H1199V561H1200V560ZM1200 481H1280V479H1200V481ZM1280 559H1200V561H1280V559ZM1201 560V480H1199V560H1201Z" fill="#B7F2C6" mask="url(#path-247-inside-124_2114_8966)"/>
<mask id="path-249-inside-125_2114_8966" fill="white">
<path d="M1280 480H1360V560H1280V480Z"/>
</mask>
<path d="M1280 480V479H1279V480H1280ZM1280 560H1279V561H1280V560ZM1280 481H1360V479H1280V481ZM1360 559H1280V561H1360V559ZM1281 560V480H1279V560H1281Z" fill="#B7F2C6" mask="url(#path-249-inside-125_2114_8966)"/>
<mask id="path-251-inside-126_2114_8966" fill="white">
<path d="M1360 480H1440V560H1360V480Z"/>
</mask>
<path d="M1360 480V479H1359V480H1360ZM1440 480H1441V479H1440V480ZM1440 560V561H1441V560H1440ZM1360 560H1359V561H1360V560ZM1360 481H1440V479H1360V481ZM1439 480V560H1441V480H1439ZM1440 559H1360V561H1440V559ZM1361 560V480H1359V560H1361Z" fill="#B7F2C6" mask="url(#path-251-inside-126_2114_8966)"/>
<mask id="path-253-inside-127_2114_8966" fill="white">
<path d="M0 560H80V640H0V560Z"/>
</mask>
<path d="M0 560V559H-1V560H0ZM0 640H-1V641H0V640ZM0 561H80V559H0V561ZM80 639H0V641H80V639ZM1 640V560H-1V640H1Z" fill="#B7F2C6" mask="url(#path-253-inside-127_2114_8966)"/>
<mask id="path-255-inside-128_2114_8966" fill="white">
<path d="M80 560H160V640H80V560Z"/>
</mask>
<path d="M80 560V559H79V560H80ZM80 640H79V641H80V640ZM80 561H160V559H80V561ZM160 639H80V641H160V639ZM81 640V560H79V640H81Z" fill="#B7F2C6" mask="url(#path-255-inside-128_2114_8966)"/>
<mask id="path-257-inside-129_2114_8966" fill="white">
<path d="M160 560H240V640H160V560Z"/>
</mask>
<path d="M160 560V559H159V560H160ZM160 640H159V641H160V640ZM160 561H240V559H160V561ZM240 639H160V641H240V639ZM161 640V560H159V640H161Z" fill="#B7F2C6" mask="url(#path-257-inside-129_2114_8966)"/>
<mask id="path-259-inside-130_2114_8966" fill="white">
<path d="M240 560H320V640H240V560Z"/>
</mask>
<path d="M240 560V559H239V560H240ZM240 640H239V641H240V640ZM240 561H320V559H240V561ZM320 639H240V641H320V639ZM241 640V560H239V640H241Z" fill="#B7F2C6" mask="url(#path-259-inside-130_2114_8966)"/>
<mask id="path-261-inside-131_2114_8966" fill="white">
<path d="M320 560H400V640H320V560Z"/>
</mask>
<path d="M320 560V559H319V560H320ZM320 640H319V641H320V640ZM320 561H400V559H320V561ZM400 639H320V641H400V639ZM321 640V560H319V640H321Z" fill="#B7F2C6" mask="url(#path-261-inside-131_2114_8966)"/>
<mask id="path-263-inside-132_2114_8966" fill="white">
<path d="M400 560H480V640H400V560Z"/>
</mask>
<path d="M400 560V559H399V560H400ZM400 640H399V641H400V640ZM400 561H480V559H400V561ZM480 639H400V641H480V639ZM401 640V560H399V640H401Z" fill="#B7F2C6" mask="url(#path-263-inside-132_2114_8966)"/>
<mask id="path-265-inside-133_2114_8966" fill="white">
<path d="M480 560H560V640H480V560Z"/>
</mask>
<path d="M480 560V559H479V560H480ZM480 640H479V641H480V640ZM480 561H560V559H480V561ZM560 639H480V641H560V639ZM481 640V560H479V640H481Z" fill="#B7F2C6" mask="url(#path-265-inside-133_2114_8966)"/>
<mask id="path-267-inside-134_2114_8966" fill="white">
<path d="M560 560H640V640H560V560Z"/>
</mask>
<path d="M560 560V559H559V560H560ZM560 640H559V641H560V640ZM560 561H640V559H560V561ZM640 639H560V641H640V639ZM561 640V560H559V640H561Z" fill="#B7F2C6" mask="url(#path-267-inside-134_2114_8966)"/>
<mask id="path-269-inside-135_2114_8966" fill="white">
<path d="M640 560H720V640H640V560Z"/>
</mask>
<path d="M640 560V559H639V560H640ZM640 640H639V641H640V640ZM640 561H720V559H640V561ZM720 639H640V641H720V639ZM641 640V560H639V640H641Z" fill="#B7F2C6" mask="url(#path-269-inside-135_2114_8966)"/>
<mask id="path-271-inside-136_2114_8966" fill="white">
<path d="M720 560H800V640H720V560Z"/>
</mask>
<path d="M720 560V559H719V560H720ZM720 640H719V641H720V640ZM720 561H800V559H720V561ZM800 639H720V641H800V639ZM721 640V560H719V640H721Z" fill="#B7F2C6" mask="url(#path-271-inside-136_2114_8966)"/>
<mask id="path-273-inside-137_2114_8966" fill="white">
<path d="M800 560H880V640H800V560Z"/>
</mask>
<path d="M800 560V559H799V560H800ZM800 640H799V641H800V640ZM800 561H880V559H800V561ZM880 639H800V641H880V639ZM801 640V560H799V640H801Z" fill="#B7F2C6" mask="url(#path-273-inside-137_2114_8966)"/>
<mask id="path-275-inside-138_2114_8966" fill="white">
<path d="M880 560H960V640H880V560Z"/>
</mask>
<path d="M880 560V559H879V560H880ZM880 640H879V641H880V640ZM880 561H960V559H880V561ZM960 639H880V641H960V639ZM881 640V560H879V640H881Z" fill="#B7F2C6" mask="url(#path-275-inside-138_2114_8966)"/>
<mask id="path-277-inside-139_2114_8966" fill="white">
<path d="M960 560H1040V640H960V560Z"/>
</mask>
<path d="M960 560V559H959V560H960ZM960 640H959V641H960V640ZM960 561H1040V559H960V561ZM1040 639H960V641H1040V639ZM961 640V560H959V640H961Z" fill="#B7F2C6" mask="url(#path-277-inside-139_2114_8966)"/>
<mask id="path-279-inside-140_2114_8966" fill="white">
<path d="M1040 560H1120V640H1040V560Z"/>
</mask>
<path d="M1040 560V559H1039V560H1040ZM1040 640H1039V641H1040V640ZM1040 561H1120V559H1040V561ZM1120 639H1040V641H1120V639ZM1041 640V560H1039V640H1041Z" fill="#B7F2C6" mask="url(#path-279-inside-140_2114_8966)"/>
<mask id="path-281-inside-141_2114_8966" fill="white">
<path d="M1120 560H1200V640H1120V560Z"/>
</mask>
<path d="M1120 560V559H1119V560H1120ZM1120 640H1119V641H1120V640ZM1120 561H1200V559H1120V561ZM1200 639H1120V641H1200V639ZM1121 640V560H1119V640H1121Z" fill="#B7F2C6" mask="url(#path-281-inside-141_2114_8966)"/>
<mask id="path-283-inside-142_2114_8966" fill="white">
<path d="M1200 560H1280V640H1200V560Z"/>
</mask>
<path d="M1200 560V559H1199V560H1200ZM1200 640H1199V641H1200V640ZM1200 561H1280V559H1200V561ZM1280 639H1200V641H1280V639ZM1201 640V560H1199V640H1201Z" fill="#B7F2C6" mask="url(#path-283-inside-142_2114_8966)"/>
<mask id="path-285-inside-143_2114_8966" fill="white">
<path d="M1280 560H1360V640H1280V560Z"/>
</mask>
<path d="M1280 560V559H1279V560H1280ZM1280 640H1279V641H1280V640ZM1280 561H1360V559H1280V561ZM1360 639H1280V641H1360V639ZM1281 640V560H1279V640H1281Z" fill="#B7F2C6" mask="url(#path-285-inside-143_2114_8966)"/>
<mask id="path-287-inside-144_2114_8966" fill="white">
<path d="M1360 560H1440V640H1360V560Z"/>
</mask>
<path d="M1360 560V559H1359V560H1360ZM1440 560H1441V559H1440V560ZM1440 640V641H1441V640H1440ZM1360 640H1359V641H1360V640ZM1360 561H1440V559H1360V561ZM1439 560V640H1441V560H1439ZM1440 639H1360V641H1440V639ZM1361 640V560H1359V640H1361Z" fill="#B7F2C6" mask="url(#path-287-inside-144_2114_8966)"/>
<mask id="path-289-inside-145_2114_8966" fill="white">
<path d="M0 640H80V720H0V640Z"/>
</mask>
<path d="M0 640V639H-1V640H0ZM0 720H-1V721H0V720ZM0 641H80V639H0V641ZM80 719H0V721H80V719ZM1 720V640H-1V720H1Z" fill="#B7F2C6" mask="url(#path-289-inside-145_2114_8966)"/>
<mask id="path-291-inside-146_2114_8966" fill="white">
<path d="M80 640H160V720H80V640Z"/>
</mask>
<path d="M80 640V639H79V640H80ZM80 720H79V721H80V720ZM80 641H160V639H80V641ZM160 719H80V721H160V719ZM81 720V640H79V720H81Z" fill="#B7F2C6" mask="url(#path-291-inside-146_2114_8966)"/>
<mask id="path-293-inside-147_2114_8966" fill="white">
<path d="M160 640H240V720H160V640Z"/>
</mask>
<path d="M160 640V639H159V640H160ZM160 720H159V721H160V720ZM160 641H240V639H160V641ZM240 719H160V721H240V719ZM161 720V640H159V720H161Z" fill="#B7F2C6" mask="url(#path-293-inside-147_2114_8966)"/>
<mask id="path-295-inside-148_2114_8966" fill="white">
<path d="M240 640H320V720H240V640Z"/>
</mask>
<path d="M240 640V639H239V640H240ZM240 720H239V721H240V720ZM240 641H320V639H240V641ZM320 719H240V721H320V719ZM241 720V640H239V720H241Z" fill="#B7F2C6" mask="url(#path-295-inside-148_2114_8966)"/>
<mask id="path-297-inside-149_2114_8966" fill="white">
<path d="M320 640H400V720H320V640Z"/>
</mask>
<path d="M320 640V639H319V640H320ZM320 720H319V721H320V720ZM320 641H400V639H320V641ZM400 719H320V721H400V719ZM321 720V640H319V720H321Z" fill="#B7F2C6" mask="url(#path-297-inside-149_2114_8966)"/>
<mask id="path-299-inside-150_2114_8966" fill="white">
<path d="M400 640H480V720H400V640Z"/>
</mask>
<path d="M400 640V639H399V640H400ZM400 720H399V721H400V720ZM400 641H480V639H400V641ZM480 719H400V721H480V719ZM401 720V640H399V720H401Z" fill="#B7F2C6" mask="url(#path-299-inside-150_2114_8966)"/>
<mask id="path-301-inside-151_2114_8966" fill="white">
<path d="M480 640H560V720H480V640Z"/>
</mask>
<path d="M480 640V639H479V640H480ZM480 720H479V721H480V720ZM480 641H560V639H480V641ZM560 719H480V721H560V719ZM481 720V640H479V720H481Z" fill="#B7F2C6" mask="url(#path-301-inside-151_2114_8966)"/>
<mask id="path-303-inside-152_2114_8966" fill="white">
<path d="M560 640H640V720H560V640Z"/>
</mask>
<path d="M560 640V639H559V640H560ZM560 720H559V721H560V720ZM560 641H640V639H560V641ZM640 719H560V721H640V719ZM561 720V640H559V720H561Z" fill="#B7F2C6" mask="url(#path-303-inside-152_2114_8966)"/>
<mask id="path-305-inside-153_2114_8966" fill="white">
<path d="M640 640H720V720H640V640Z"/>
</mask>
<path d="M640 640V639H639V640H640ZM640 720H639V721H640V720ZM640 641H720V639H640V641ZM720 719H640V721H720V719ZM641 720V640H639V720H641Z" fill="#B7F2C6" mask="url(#path-305-inside-153_2114_8966)"/>
<mask id="path-307-inside-154_2114_8966" fill="white">
<path d="M720 640H800V720H720V640Z"/>
</mask>
<path d="M720 640V639H719V640H720ZM720 720H719V721H720V720ZM720 641H800V639H720V641ZM800 719H720V721H800V719ZM721 720V640H719V720H721Z" fill="#B7F2C6" mask="url(#path-307-inside-154_2114_8966)"/>
<mask id="path-309-inside-155_2114_8966" fill="white">
<path d="M800 640H880V720H800V640Z"/>
</mask>
<path d="M800 640V639H799V640H800ZM800 720H799V721H800V720ZM800 641H880V639H800V641ZM880 719H800V721H880V719ZM801 720V640H799V720H801Z" fill="#B7F2C6" mask="url(#path-309-inside-155_2114_8966)"/>
<mask id="path-311-inside-156_2114_8966" fill="white">
<path d="M880 640H960V720H880V640Z"/>
</mask>
<path d="M880 640V639H879V640H880ZM880 720H879V721H880V720ZM880 641H960V639H880V641ZM960 719H880V721H960V719ZM881 720V640H879V720H881Z" fill="#B7F2C6" mask="url(#path-311-inside-156_2114_8966)"/>
<mask id="path-313-inside-157_2114_8966" fill="white">
<path d="M960 640H1040V720H960V640Z"/>
</mask>
<path d="M960 640V639H959V640H960ZM960 720H959V721H960V720ZM960 641H1040V639H960V641ZM1040 719H960V721H1040V719ZM961 720V640H959V720H961Z" fill="#B7F2C6" mask="url(#path-313-inside-157_2114_8966)"/>
<mask id="path-315-inside-158_2114_8966" fill="white">
<path d="M1040 640H1120V720H1040V640Z"/>
</mask>
<path d="M1040 640V639H1039V640H1040ZM1040 720H1039V721H1040V720ZM1040 641H1120V639H1040V641ZM1120 719H1040V721H1120V719ZM1041 720V640H1039V720H1041Z" fill="#B7F2C6" mask="url(#path-315-inside-158_2114_8966)"/>
<mask id="path-317-inside-159_2114_8966" fill="white">
<path d="M1120 640H1200V720H1120V640Z"/>
</mask>
<path d="M1120 640V639H1119V640H1120ZM1120 720H1119V721H1120V720ZM1120 641H1200V639H1120V641ZM1200 719H1120V721H1200V719ZM1121 720V640H1119V720H1121Z" fill="#B7F2C6" mask="url(#path-317-inside-159_2114_8966)"/>
<mask id="path-319-inside-160_2114_8966" fill="white">
<path d="M1200 640H1280V720H1200V640Z"/>
</mask>
<path d="M1200 640V639H1199V640H1200ZM1200 720H1199V721H1200V720ZM1200 641H1280V639H1200V641ZM1280 719H1200V721H1280V719ZM1201 720V640H1199V720H1201Z" fill="#B7F2C6" mask="url(#path-319-inside-160_2114_8966)"/>
<mask id="path-321-inside-161_2114_8966" fill="white">
<path d="M1280 640H1360V720H1280V640Z"/>
</mask>
<path d="M1280 640V639H1279V640H1280ZM1280 720H1279V721H1280V720ZM1280 641H1360V639H1280V641ZM1360 719H1280V721H1360V719ZM1281 720V640H1279V720H1281Z" fill="#B7F2C6" mask="url(#path-321-inside-161_2114_8966)"/>
<mask id="path-323-inside-162_2114_8966" fill="white">
<path d="M1360 640H1440V720H1360V640Z"/>
</mask>
<path d="M1360 640V639H1359V640H1360ZM1440 640H1441V639H1440V640ZM1440 720V721H1441V720H1440ZM1360 720H1359V721H1360V720ZM1360 641H1440V639H1360V641ZM1439 640V720H1441V640H1439ZM1440 719H1360V721H1440V719ZM1361 720V640H1359V720H1361Z" fill="#B7F2C6" mask="url(#path-323-inside-162_2114_8966)"/>
<mask id="path-325-inside-163_2114_8966" fill="white">
<path d="M0 720H80V800H0V720Z"/>
</mask>
<path d="M0 720V719H-1V720H0ZM0 800H-1V801H0V800ZM0 721H80V719H0V721ZM80 799H0V801H80V799ZM1 800V720H-1V800H1Z" fill="#B7F2C6" mask="url(#path-325-inside-163_2114_8966)"/>
<mask id="path-327-inside-164_2114_8966" fill="white">
<path d="M80 720H160V800H80V720Z"/>
</mask>
<path d="M80 720V719H79V720H80ZM80 800H79V801H80V800ZM80 721H160V719H80V721ZM160 799H80V801H160V799ZM81 800V720H79V800H81Z" fill="#B7F2C6" mask="url(#path-327-inside-164_2114_8966)"/>
<mask id="path-329-inside-165_2114_8966" fill="white">
<path d="M160 720H240V800H160V720Z"/>
</mask>
<path d="M160 720V719H159V720H160ZM160 800H159V801H160V800ZM160 721H240V719H160V721ZM240 799H160V801H240V799ZM161 800V720H159V800H161Z" fill="#B7F2C6" mask="url(#path-329-inside-165_2114_8966)"/>
<mask id="path-331-inside-166_2114_8966" fill="white">
<path d="M240 720H320V800H240V720Z"/>
</mask>
<path d="M240 720V719H239V720H240ZM240 800H239V801H240V800ZM240 721H320V719H240V721ZM320 799H240V801H320V799ZM241 800V720H239V800H241Z" fill="#B7F2C6" mask="url(#path-331-inside-166_2114_8966)"/>
<mask id="path-333-inside-167_2114_8966" fill="white">
<path d="M320 720H400V800H320V720Z"/>
</mask>
<path d="M320 720V719H319V720H320ZM320 800H319V801H320V800ZM320 721H400V719H320V721ZM400 799H320V801H400V799ZM321 800V720H319V800H321Z" fill="#B7F2C6" mask="url(#path-333-inside-167_2114_8966)"/>
<mask id="path-335-inside-168_2114_8966" fill="white">
<path d="M400 720H480V800H400V720Z"/>
</mask>
<path d="M400 720V719H399V720H400ZM400 800H399V801H400V800ZM400 721H480V719H400V721ZM480 799H400V801H480V799ZM401 800V720H399V800H401Z" fill="#B7F2C6" mask="url(#path-335-inside-168_2114_8966)"/>
<mask id="path-337-inside-169_2114_8966" fill="white">
<path d="M480 720H560V800H480V720Z"/>
</mask>
<path d="M480 720V719H479V720H480ZM480 800H479V801H480V800ZM480 721H560V719H480V721ZM560 799H480V801H560V799ZM481 800V720H479V800H481Z" fill="#B7F2C6" mask="url(#path-337-inside-169_2114_8966)"/>
<mask id="path-339-inside-170_2114_8966" fill="white">
<path d="M560 720H640V800H560V720Z"/>
</mask>
<path d="M560 720V719H559V720H560ZM560 800H559V801H560V800ZM560 721H640V719H560V721ZM640 799H560V801H640V799ZM561 800V720H559V800H561Z" fill="#B7F2C6" mask="url(#path-339-inside-170_2114_8966)"/>
<mask id="path-341-inside-171_2114_8966" fill="white">
<path d="M640 720H720V800H640V720Z"/>
</mask>
<path d="M640 720V719H639V720H640ZM640 800H639V801H640V800ZM640 721H720V719H640V721ZM720 799H640V801H720V799ZM641 800V720H639V800H641Z" fill="#B7F2C6" mask="url(#path-341-inside-171_2114_8966)"/>
<mask id="path-343-inside-172_2114_8966" fill="white">
<path d="M720 720H800V800H720V720Z"/>
</mask>
<path d="M720 720V719H719V720H720ZM720 800H719V801H720V800ZM720 721H800V719H720V721ZM800 799H720V801H800V799ZM721 800V720H719V800H721Z" fill="#B7F2C6" mask="url(#path-343-inside-172_2114_8966)"/>
<mask id="path-345-inside-173_2114_8966" fill="white">
<path d="M800 720H880V800H800V720Z"/>
</mask>
<path d="M800 720V719H799V720H800ZM800 800H799V801H800V800ZM800 721H880V719H800V721ZM880 799H800V801H880V799ZM801 800V720H799V800H801Z" fill="#B7F2C6" mask="url(#path-345-inside-173_2114_8966)"/>
<mask id="path-347-inside-174_2114_8966" fill="white">
<path d="M880 720H960V800H880V720Z"/>
</mask>
<path d="M880 720V719H879V720H880ZM880 800H879V801H880V800ZM880 721H960V719H880V721ZM960 799H880V801H960V799ZM881 800V720H879V800H881Z" fill="#B7F2C6" mask="url(#path-347-inside-174_2114_8966)"/>
<mask id="path-349-inside-175_2114_8966" fill="white">
<path d="M960 720H1040V800H960V720Z"/>
</mask>
<path d="M960 720V719H959V720H960ZM960 800H959V801H960V800ZM960 721H1040V719H960V721ZM1040 799H960V801H1040V799ZM961 800V720H959V800H961Z" fill="#B7F2C6" mask="url(#path-349-inside-175_2114_8966)"/>
<mask id="path-351-inside-176_2114_8966" fill="white">
<path d="M1040 720H1120V800H1040V720Z"/>
</mask>
<path d="M1040 720V719H1039V720H1040ZM1040 800H1039V801H1040V800ZM1040 721H1120V719H1040V721ZM1120 799H1040V801H1120V799ZM1041 800V720H1039V800H1041Z" fill="#B7F2C6" mask="url(#path-351-inside-176_2114_8966)"/>
<mask id="path-353-inside-177_2114_8966" fill="white">
<path d="M1120 720H1200V800H1120V720Z"/>
</mask>
<path d="M1120 720V719H1119V720H1120ZM1120 800H1119V801H1120V800ZM1120 721H1200V719H1120V721ZM1200 799H1120V801H1200V799ZM1121 800V720H1119V800H1121Z" fill="#B7F2C6" mask="url(#path-353-inside-177_2114_8966)"/>
<mask id="path-355-inside-178_2114_8966" fill="white">
<path d="M1200 720H1280V800H1200V720Z"/>
</mask>
<path d="M1200 720V719H1199V720H1200ZM1200 800H1199V801H1200V800ZM1200 721H1280V719H1200V721ZM1280 799H1200V801H1280V799ZM1201 800V720H1199V800H1201Z" fill="#B7F2C6" mask="url(#path-355-inside-178_2114_8966)"/>
<mask id="path-357-inside-179_2114_8966" fill="white">
<path d="M1280 720H1360V800H1280V720Z"/>
</mask>
<path d="M1280 720V719H1279V720H1280ZM1280 800H1279V801H1280V800ZM1280 721H1360V719H1280V721ZM1360 799H1280V801H1360V799ZM1281 800V720H1279V800H1281Z" fill="#B7F2C6" mask="url(#path-357-inside-179_2114_8966)"/>
<mask id="path-359-inside-180_2114_8966" fill="white">
<path d="M1360 720H1440V800H1360V720Z"/>
</mask>
<path d="M1360 720V719H1359V720H1360ZM1440 720H1441V719H1440V720ZM1440 800V801H1441V800H1440ZM1360 800H1359V801H1360V800ZM1360 721H1440V719H1360V721ZM1439 720V800H1441V720H1439ZM1440 799H1360V801H1440V799ZM1361 800V720H1359V800H1361Z" fill="#B7F2C6" mask="url(#path-359-inside-180_2114_8966)"/>
</g>
</svg>
