<svg width="1361" height="47" viewBox="0 0 1361 47" fill="none" xmlns="http://www.w3.org/2000/svg">
<rect opacity="0.2" y="36" width="1361" height="5" rx="2.5" fill="url(#paint0_linear_2114_13170)"/>
<rect y="36" width="1003" height="5" rx="2.5" fill="#24CBBF"/>
<path d="M57 0.769231C57 0.344396 57.3444 0 57.7692 0C58.1941 0 58.5385 0.344396 58.5385 0.76923V30H57V0.769231Z" fill="#24CBBF"/>
<rect x="50" y="31" width="16" height="16" rx="3" fill="#24CBBF"/>
<rect x="53" y="34" width="10" height="10" rx="3" fill="white"/>
<path d="M372 0.769231C372 0.344396 372.344 0 372.769 0C373.194 0 373.538 0.344396 373.538 0.76923V30H372V0.769231Z" fill="#C5C5C5"/>
<rect x="365" y="31" width="16" height="16" rx="3" fill="#24CBBF"/>
<rect x="368" y="34" width="10" height="10" rx="3" fill="white"/>
<path d="M687 0.769231C687 0.344396 687.344 0 687.769 0C688.194 0 688.538 0.344396 688.538 0.76923V30H687V0.769231Z" fill="#C5C5C5"/>
<rect x="680" y="31" width="16" height="16" rx="3" fill="#24CBBF"/>
<rect x="683" y="34" width="10" height="10" rx="3" fill="white"/>
<path d="M1002 0.769231C1002 0.344396 1002.34 0 1002.77 0C1003.19 0 1003.54 0.344396 1003.54 0.76923V30H1002V0.769231Z" fill="#C5C5C5"/>
<rect x="995" y="31" width="16" height="16" rx="3" fill="#24CBBF"/>
<rect x="998" y="34" width="10" height="10" rx="3" fill="white"/>
<g opacity="0.5">
<path d="M1317 0.769231C1317 0.344396 1317.34 0 1317.77 0C1318.19 0 1318.54 0.344396 1318.54 0.76923V30H1317V0.769231Z" fill="#C5C5C5"/>
<rect x="1310" y="31" width="16" height="16" rx="3" fill="#24CBBF"/>
<rect x="1313" y="34" width="10" height="10" rx="3" fill="white"/>
</g>
<defs>
<linearGradient id="paint0_linear_2114_13170" x1="1281.5" y1="39.0007" x2="1340" y2="39.0007" gradientUnits="userSpaceOnUse">
<stop stop-color="#141414"/>
<stop offset="1" stop-color="#141414" stop-opacity="0"/>
</linearGradient>
</defs>
</svg>
