<svg width="384" height="18" viewBox="0 0 384 18" fill="none" xmlns="http://www.w3.org/2000/svg">
<path opacity="0.5" d="M73.5 9H1" stroke="url(#paint0_linear_2114_8703)" stroke-width="1.5" stroke-linecap="round"/>
<path d="M113.822 0.235999C117.202 0.235999 119.932 2.966 119.932 6.346C119.932 9.726 117.202 12.482 113.822 12.482C110.442 12.482 107.686 9.726 107.686 6.346H110.572C110.572 8.348 112.028 9.96 113.822 9.96C115.59 9.96 117.046 8.348 117.046 6.346C117.046 4.37 115.59 2.758 113.822 2.758H107.322V17.526H104.462V0.235999H113.822ZM132.637 12.066C132.923 13.73 134.223 15.004 135.809 15.004V17.526C132.819 17.526 130.297 15.342 129.803 12.482H123.927V17.526H121.067V0.235999H130.427C133.807 0.235999 136.537 2.966 136.537 6.346C136.537 8.946 134.925 11.182 132.637 12.066ZM130.427 9.96C132.195 9.96 133.651 8.348 133.651 6.346C133.651 4.37 132.195 2.758 130.427 2.758H123.927V9.96H130.427ZM150.485 2.758H140.761V5.644H147.261V8.166H140.761V15.004H150.485V17.526H137.901V0.235999H150.485V2.758ZM165.886 0.235999H170.358V17.526H167.472V4.006C167.472 3.642 167.55 3.278 167.68 2.94L168.018 2.108L167.654 1.952L167.342 2.732C167.29 2.836 167.238 2.94 167.186 3.044L162.558 11.39H159.386L154.836 3.174C154.784 3.07 154.732 2.966 154.68 2.862L154.316 1.952L153.978 2.108L154.29 2.94C154.446 3.278 154.498 3.642 154.498 4.006V17.526H151.638V0.235999H156.084L160.426 8.088C160.66 8.504 160.79 8.998 160.79 9.466V9.96H161.18V9.44C161.18 8.946 161.31 8.478 161.544 8.036L165.886 0.235999ZM175.166 17.526H172.306V0.235999H175.166V17.526ZM187.063 0.235999L194.213 17.526H191.093L189.741 14.276H180.381L179.029 17.526H175.935L183.059 0.235999H187.063ZM181.421 11.754H188.701L185.477 3.928C185.347 3.59 185.269 3.226 185.269 2.862L185.243 2.03H184.879V2.784C184.879 3.174 184.801 3.538 184.645 3.902L181.421 11.754ZM208.317 12.846V0.235999H211.203V17.526H208.317L198.515 4.682C198.333 4.422 198.177 4.162 198.073 3.85L197.683 2.68L197.319 2.81L197.735 4.006C197.813 4.292 197.865 4.604 197.865 4.916V17.526H195.005V0.235999H197.865L207.667 13.054C207.849 13.314 208.005 13.6 208.109 13.912L208.499 15.056L208.863 14.926L208.473 13.756C208.369 13.47 208.317 13.158 208.317 12.846ZM212.015 0.235999H227.121V2.758H221.011V17.526H218.125V2.758H212.015V0.235999ZM239.963 15.004H249.687V17.526H237.103V0.235999H239.963V15.004ZM246.724 0.235999H261.83V2.758H255.72V17.526H252.834V2.758H246.724V0.235999ZM270.186 0.235999C275.568 0.235999 279.91 4.11 279.91 8.868C279.91 13.652 276.374 17.526 272.006 17.526C268.626 17.526 265.87 14.77 265.87 11.39H268.756C268.756 13.392 270.212 15.004 272.006 15.004C274.788 15.004 277.05 12.248 277.05 8.868C277.05 5.488 273.982 2.758 270.186 2.758H265.506V17.526H262.646V0.235999H270.186Z" fill="#151515"/>
<path opacity="0.5" d="M310.5 9H383" stroke="url(#paint1_linear_2114_8703)" stroke-width="1.5" stroke-linecap="round"/>
<defs>
<linearGradient id="paint0_linear_2114_8703" x1="73.5" y1="9.5" x2="1" y2="9.5" gradientUnits="userSpaceOnUse">
<stop/>
<stop offset="1" stop-color="#666666" stop-opacity="0"/>
</linearGradient>
<linearGradient id="paint1_linear_2114_8703" x1="310.5" y1="8.5" x2="383" y2="8.5" gradientUnits="userSpaceOnUse">
<stop/>
<stop offset="1" stop-color="#666666" stop-opacity="0"/>
</linearGradient>
</defs>
</svg>
