<svg width="73" height="20" viewBox="0 0 73 20" fill="none" xmlns="http://www.w3.org/2000/svg">
<rect y="5" width="10" height="10" rx="3" fill="#151515"/>
<path opacity="0.7" d="M30.856 16.24C29.7093 16.24 28.736 15.9867 27.936 15.48C27.136 14.9733 26.5253 14.2693 26.104 13.368C25.688 12.4667 25.48 11.424 25.48 10.24C25.48 9.056 25.688 8.01333 26.104 7.112C26.5253 6.21067 27.136 5.50667 27.936 5C28.736 4.49333 29.7093 4.24 30.856 4.24C32.008 4.24 32.984 4.49333 33.784 5C34.584 5.50667 35.192 6.21067 35.608 7.112C36.024 8.01333 36.232 9.056 36.232 10.24C36.232 11.424 36.024 12.4667 35.608 13.368C35.192 14.2693 34.584 14.9733 33.784 15.48C32.984 15.9867 32.008 16.24 30.856 16.24ZM30.856 14.88C31.7147 14.8853 32.4293 14.6933 33 14.304C33.576 13.9093 34.0053 13.3627 34.288 12.664C34.576 11.9653 34.72 11.1573 34.72 10.24C34.72 9.31733 34.576 8.50933 34.288 7.816C34.0053 7.12267 33.576 6.58133 33 6.192C32.4293 5.80267 31.7147 5.60533 30.856 5.6C29.9973 5.59467 29.2827 5.78667 28.712 6.176C28.1467 6.56533 27.72 7.10933 27.432 7.808C27.144 8.50667 26.9973 9.31733 26.992 10.24C26.9867 11.1573 27.128 11.9627 27.416 12.656C27.704 13.3493 28.1333 13.8933 28.704 14.288C29.28 14.6773 29.9973 14.8747 30.856 14.88ZM41.0419 16V4.48H42.4659V9.56H48.5299V4.48H49.9539V16H48.5299V10.912H42.4659V16H41.0419ZM51.3981 16L55.2541 4.48H57.2381L61.0941 16H59.6141L56.0061 5.312H56.4541L52.8781 16H51.3981ZM53.2541 13.304V11.968H59.2381V13.304H53.2541ZM66.9498 16.24C65.8031 16.24 64.8298 15.9867 64.0298 15.48C63.2298 14.9733 62.6191 14.2693 62.1978 13.368C61.7818 12.4667 61.5738 11.424 61.5738 10.24C61.5738 9.056 61.7818 8.01333 62.1978 7.112C62.6191 6.21067 63.2298 5.50667 64.0298 5C64.8298 4.49333 65.8031 4.24 66.9498 4.24C68.2831 4.24 69.3791 4.57867 70.2378 5.256C71.1018 5.93333 71.6964 6.84533 72.0218 7.992L70.5738 8.376C70.3391 7.51733 69.9204 6.84 69.3177 6.344C68.7151 5.848 67.9258 5.6 66.9498 5.6C66.0911 5.6 65.3764 5.79467 64.8058 6.184C64.2351 6.57333 63.8058 7.11733 63.5178 7.816C63.2298 8.50933 63.0831 9.31733 63.0778 10.24C63.0724 11.1573 63.2138 11.9653 63.5018 12.664C63.7898 13.3573 64.2218 13.9013 64.7978 14.296C65.3738 14.6853 66.0911 14.88 66.9498 14.88C67.9258 14.88 68.7151 14.632 69.3177 14.136C69.9204 13.6347 70.3391 12.9573 70.5738 12.104L72.0218 12.488C71.6964 13.6293 71.1018 14.5413 70.2378 15.224C69.3791 15.9013 68.2831 16.24 66.9498 16.24Z" fill="black"/>
</svg>
