<svg width="169" height="20" viewBox="0 0 169 20" fill="none" xmlns="http://www.w3.org/2000/svg">
<rect y="5" width="10" height="10" rx="3" fill="#151515"/>
<path opacity="0.7" d="M26.12 16V4.48H30.608C31.296 4.48 31.8827 4.62133 32.368 4.904C32.8587 5.18667 33.232 5.56 33.488 6.024C33.7493 6.48267 33.88 6.97867 33.88 7.512C33.88 8.136 33.72 8.68267 33.4 9.152C33.08 9.62133 32.648 9.944 32.104 10.12L32.088 9.728C32.8293 9.92533 33.4053 10.288 33.816 10.816C34.2267 11.344 34.432 11.9733 34.432 12.704C34.432 13.376 34.2933 13.9573 34.016 14.448C33.744 14.9387 33.3493 15.32 32.832 15.592C32.32 15.864 31.712 16 31.008 16H26.12ZM27.56 14.64H30.736C31.1627 14.64 31.544 14.5627 31.88 14.408C32.216 14.248 32.48 14.024 32.672 13.736C32.8693 13.448 32.968 13.1013 32.968 12.696C32.968 12.3067 32.88 11.9573 32.704 11.648C32.5333 11.3387 32.2907 11.0933 31.976 10.912C31.6667 10.7253 31.3067 10.632 30.896 10.632H27.56V14.64ZM27.56 9.288H30.592C30.9333 9.288 31.24 9.216 31.512 9.072C31.7893 8.92267 32.008 8.71467 32.168 8.448C32.3333 8.18133 32.416 7.86933 32.416 7.512C32.416 7.016 32.248 6.61067 31.912 6.296C31.576 5.98133 31.136 5.824 30.592 5.824H27.56V9.288ZM35.2263 16L39.0823 4.48H41.0663L44.9223 16H43.4423L39.8343 5.312H40.2823L36.7063 16H35.2263ZM37.0823 13.304V11.968H43.0663V13.304H37.0823ZM46.3544 16V4.48H47.6504L52.0024 13.656L56.3304 4.48H57.6424V15.992H56.2904V7.608L52.3784 16H51.6184L47.7064 7.608V16H46.3544ZM63.0888 16V4.48H72.0808V16H70.6568V5.832H64.5128V16H63.0888ZM79.0591 16.24C77.9125 16.24 76.9391 15.9867 76.1391 15.48C75.3391 14.9733 74.7285 14.2693 74.3071 13.368C73.8911 12.4667 73.6831 11.424 73.6831 10.24C73.6831 9.056 73.8911 8.01333 74.3071 7.112C74.7285 6.21067 75.3391 5.50667 76.1391 5C76.9391 4.49333 77.9125 4.24 79.0591 4.24C80.2111 4.24 81.1871 4.49333 81.9871 5C82.7871 5.50667 83.3951 6.21067 83.8111 7.112C84.2271 8.01333 84.4351 9.056 84.4351 10.24C84.4351 11.424 84.2271 12.4667 83.8111 13.368C83.3951 14.2693 82.7871 14.9733 81.9871 15.48C81.1871 15.9867 80.2111 16.24 79.0591 16.24ZM79.0591 14.88C79.9178 14.8853 80.6325 14.6933 81.2031 14.304C81.7791 13.9093 82.2085 13.3627 82.4911 12.664C82.7791 11.9653 82.9231 11.1573 82.9231 10.24C82.9231 9.31733 82.7791 8.50933 82.4911 7.816C82.2085 7.12267 81.7791 6.58133 81.2031 6.192C80.6325 5.80267 79.9178 5.60533 79.0591 5.6C78.2005 5.59467 77.4858 5.78667 76.9151 6.176C76.3498 6.56533 75.9231 7.10933 75.6351 7.808C75.3471 8.50667 75.2005 9.31733 75.1951 10.24C75.1898 11.1573 75.3311 11.9627 75.6191 12.656C75.9071 13.3493 76.3365 13.8933 76.9071 14.288C77.4831 14.6773 78.2005 14.8747 79.0591 14.88ZM86.0419 16V4.48H87.4659V9.56H93.5299V4.48H94.9539V16H93.5299V10.912H87.4659V16H86.0419ZM97.1981 16V4.48H101.75C101.862 4.48 101.995 4.48533 102.15 4.496C102.305 4.50133 102.454 4.51733 102.598 4.544C103.222 4.64 103.745 4.85333 104.166 5.184C104.593 5.51467 104.913 5.93333 105.126 6.44C105.339 6.94133 105.446 7.49867 105.446 8.112C105.446 8.72 105.337 9.27733 105.118 9.784C104.905 10.2853 104.585 10.704 104.158 11.04C103.737 11.3707 103.217 11.584 102.598 11.68C102.454 11.7013 102.305 11.7173 102.15 11.728C101.995 11.7387 101.862 11.744 101.75 11.744H98.6221V16H97.1981ZM98.6221 10.392H101.702C101.803 10.392 101.918 10.3867 102.046 10.376C102.179 10.3653 102.305 10.3467 102.422 10.32C102.79 10.2347 103.089 10.08 103.318 9.856C103.553 9.62667 103.723 9.36 103.83 9.056C103.937 8.74667 103.99 8.432 103.99 8.112C103.99 7.792 103.937 7.48 103.83 7.176C103.723 6.86667 103.553 6.59733 103.318 6.368C103.089 6.13867 102.79 5.984 102.422 5.904C102.305 5.872 102.179 5.85333 102.046 5.848C101.918 5.83733 101.803 5.832 101.702 5.832H98.6221V10.392ZM105.758 16L109.614 4.48H111.598L115.454 16H113.974L110.366 5.312H110.814L107.238 16H105.758ZM107.614 13.304V11.968H113.598V13.304H107.614ZM116.886 16V4.48H121.374C122.062 4.48 122.648 4.62133 123.134 4.904C123.624 5.18667 123.998 5.56 124.254 6.024C124.515 6.48267 124.646 6.97867 124.646 7.512C124.646 8.136 124.486 8.68267 124.166 9.152C123.846 9.62133 123.414 9.944 122.87 10.12L122.854 9.728C123.595 9.92533 124.171 10.288 124.582 10.816C124.992 11.344 125.198 11.9733 125.198 12.704C125.198 13.376 125.059 13.9573 124.782 14.448C124.51 14.9387 124.115 15.32 123.598 15.592C123.086 15.864 122.478 16 121.774 16H116.886ZM118.326 14.64H121.502C121.928 14.64 122.31 14.5627 122.646 14.408C122.982 14.248 123.246 14.024 123.438 13.736C123.635 13.448 123.734 13.1013 123.734 12.696C123.734 12.3067 123.646 11.9573 123.47 11.648C123.299 11.3387 123.056 11.0933 122.742 10.912C122.432 10.7253 122.072 10.632 121.662 10.632H118.326V14.64ZM118.326 9.288H121.358C121.699 9.288 122.006 9.216 122.278 9.072C122.555 8.92267 122.774 8.71467 122.934 8.448C123.099 8.18133 123.182 7.86933 123.182 7.512C123.182 7.016 123.014 6.61067 122.678 6.296C122.342 5.98133 121.902 5.824 121.358 5.824H118.326V9.288ZM135.68 16H134.24V6.992L128.232 16H126.792V4.48H128.232V13.48L134.24 4.48H135.68V16ZM140.885 16V5.832H136.957V4.48H146.237V5.832H142.309V16H140.885ZM152.247 16.24C151.1 16.24 150.127 15.9867 149.327 15.48C148.527 14.9733 147.916 14.2693 147.495 13.368C147.079 12.4667 146.871 11.424 146.871 10.24C146.871 9.056 147.079 8.01333 147.495 7.112C147.916 6.21067 148.527 5.50667 149.327 5C150.127 4.49333 151.1 4.24 152.247 4.24C153.58 4.24 154.676 4.57867 155.535 5.256C156.399 5.93333 156.993 6.84533 157.319 7.992L155.871 8.376C155.636 7.51733 155.217 6.84 154.615 6.344C154.012 5.848 153.223 5.6 152.247 5.6C151.388 5.6 150.673 5.79467 150.103 6.184C149.532 6.57333 149.103 7.11733 148.815 7.816C148.527 8.50933 148.38 9.31733 148.375 10.24C148.369 11.1573 148.511 11.9653 148.799 12.664C149.087 13.3573 149.519 13.9013 150.095 14.296C150.671 14.6853 151.388 14.88 152.247 14.88C153.223 14.88 154.012 14.632 154.615 14.136C155.217 13.6347 155.636 12.9573 155.871 12.104L157.319 12.488C156.993 13.6293 156.399 14.5413 155.535 15.224C154.676 15.9013 153.58 16.24 152.247 16.24ZM167.081 16H165.657V11.744H162.113L161.569 11.656C160.673 11.4907 159.993 11.0827 159.529 10.432C159.065 9.776 158.833 9.00267 158.833 8.112C158.833 7.49867 158.94 6.94133 159.153 6.44C159.372 5.93333 159.692 5.51467 160.113 5.184C160.54 4.85333 161.062 4.64 161.681 4.544C161.83 4.51733 161.98 4.50133 162.129 4.496C162.284 4.48533 162.417 4.48 162.529 4.48H167.081V16ZM160.225 16H158.593L161.089 10.88L162.497 11.312L160.225 16ZM165.657 10.392V5.832H162.577C162.481 5.832 162.366 5.83733 162.233 5.848C162.105 5.85333 161.98 5.872 161.857 5.904C161.489 5.984 161.19 6.13867 160.961 6.368C160.732 6.59733 160.561 6.86667 160.449 7.176C160.342 7.48 160.289 7.792 160.289 8.112C160.289 8.432 160.342 8.74667 160.449 9.056C160.561 9.36 160.732 9.62667 160.961 9.856C161.19 10.08 161.489 10.2347 161.857 10.32C161.98 10.3467 162.105 10.3653 162.233 10.376C162.366 10.3867 162.481 10.392 162.577 10.392H165.657Z" fill="black"/>
</svg>
