<svg width="185" height="20" viewBox="0 0 185 20" fill="none" xmlns="http://www.w3.org/2000/svg">
<rect y="5" width="10" height="10" rx="3" fill="#151515"/>
<path opacity="0.7" d="M25.32 16L29.176 4.48H31.16L35.016 16H33.536L29.928 5.312H30.376L26.8 16H25.32ZM27.176 13.304V11.968H33.16V13.304H27.176ZM36.4481 16V4.48H41.0001C41.1121 4.48 41.2455 4.48533 41.4001 4.496C41.5548 4.50133 41.7041 4.51733 41.8481 4.544C42.4721 4.64 42.9948 4.85333 43.4161 5.184C43.8428 5.51467 44.1628 5.93333 44.3761 6.44C44.5895 6.94133 44.6961 7.49867 44.6961 8.112C44.6961 8.72 44.5868 9.27733 44.3681 9.784C44.1548 10.2853 43.8348 10.704 43.4081 11.04C42.9868 11.3707 42.4668 11.584 41.8481 11.68C41.7041 11.7013 41.5548 11.7173 41.4001 11.728C41.2455 11.7387 41.1121 11.744 41.0001 11.744H37.8721V16H36.4481ZM37.8721 10.392H40.9521C41.0535 10.392 41.1681 10.3867 41.2961 10.376C41.4295 10.3653 41.5548 10.3467 41.6721 10.32C42.0401 10.2347 42.3388 10.08 42.5681 9.856C42.8028 9.62667 42.9735 9.36 43.0801 9.056C43.1868 8.74667 43.2401 8.432 43.2401 8.112C43.2401 7.792 43.1868 7.48 43.0801 7.176C42.9735 6.86667 42.8028 6.59733 42.5681 6.368C42.3388 6.13867 42.0401 5.984 41.6721 5.904C41.5548 5.872 41.4295 5.85333 41.2961 5.848C41.1681 5.83733 41.0535 5.832 40.9521 5.832H37.8721V10.392ZM46.2919 16V4.48H53.6039V5.832H47.7159V8.896H50.8439C50.9559 8.896 51.0892 8.90133 51.2439 8.912C51.3985 8.91733 51.5479 8.93067 51.6919 8.952C52.2999 9.02667 52.8145 9.22933 53.2359 9.56C53.6625 9.88533 53.9852 10.2987 54.2039 10.8C54.4279 11.3013 54.5399 11.8507 54.5399 12.448C54.5399 13.04 54.4305 13.5867 54.2119 14.088C53.9932 14.5893 53.6705 15.0053 53.2439 15.336C52.8225 15.6613 52.3052 15.864 51.6919 15.944C51.5479 15.96 51.3985 15.9733 51.2439 15.984C51.0892 15.9947 50.9559 16 50.8439 16H46.2919ZM47.7159 14.648H50.7959C50.8972 14.648 51.0119 14.6427 51.1399 14.632C51.2732 14.6213 51.3985 14.6053 51.5159 14.584C52.0705 14.472 52.4705 14.208 52.7159 13.792C52.9612 13.3707 53.0839 12.9227 53.0839 12.448C53.0839 11.9627 52.9612 11.5147 52.7159 11.104C52.4705 10.688 52.0705 10.424 51.5159 10.312C51.3985 10.2853 51.2732 10.2693 51.1399 10.264C51.0119 10.2533 50.8972 10.248 50.7959 10.248H47.7159V14.648ZM65.0236 16H63.5836V6.992L57.5756 16H56.1356V4.48H57.5756V13.48L63.5836 4.48H65.0236V16ZM70.2286 16V5.832H66.3006V4.48H75.5806V5.832H71.6526V16H70.2286ZM76.8544 16V4.48H81.4064C81.5184 4.48 81.6517 4.48533 81.8064 4.496C81.961 4.50133 82.1104 4.51733 82.2544 4.544C82.8784 4.64 83.401 4.85333 83.8224 5.184C84.249 5.51467 84.569 5.93333 84.7824 6.44C84.9957 6.94133 85.1024 7.49867 85.1024 8.112C85.1024 8.72 84.993 9.27733 84.7744 9.784C84.561 10.2853 84.241 10.704 83.8144 11.04C83.393 11.3707 82.873 11.584 82.2544 11.68C82.1104 11.7013 81.961 11.7173 81.8064 11.728C81.6517 11.7387 81.5184 11.744 81.4064 11.744H78.2784V16H76.8544ZM78.2784 10.392H81.3584C81.4597 10.392 81.5744 10.3867 81.7024 10.376C81.8357 10.3653 81.961 10.3467 82.0784 10.32C82.4464 10.2347 82.745 10.08 82.9744 9.856C83.209 9.62667 83.3797 9.36 83.4864 9.056C83.593 8.74667 83.6464 8.432 83.6464 8.112C83.6464 7.792 83.593 7.48 83.4864 7.176C83.3797 6.86667 83.209 6.59733 82.9744 6.368C82.745 6.13867 82.4464 5.984 82.0784 5.904C81.961 5.872 81.8357 5.85333 81.7024 5.848C81.5744 5.83733 81.4597 5.832 81.3584 5.832H78.2784V10.392ZM85.4138 16L89.2698 4.48H91.2538L95.1098 16H93.6298L90.0218 5.312H90.4698L86.8938 16H85.4138ZM87.2698 13.304V11.968H93.2538V13.304H87.2698ZM95.5819 16L100.43 10.072L95.9899 4.48H97.7419L101.902 9.808V4.48H103.326V9.808L107.486 4.48H109.238L104.798 10.072L109.646 16H107.846L103.326 10.448V16H101.902V10.448L97.3819 16H95.5819ZM116.791 16V5.832H112.863V4.48H122.143V5.832H118.215V16H116.791ZM123.417 16V4.48H127.969C128.081 4.48 128.214 4.48533 128.369 4.496C128.524 4.50133 128.673 4.51733 128.817 4.544C129.441 4.64 129.964 4.85333 130.385 5.184C130.812 5.51467 131.132 5.93333 131.345 6.44C131.558 6.94133 131.665 7.49867 131.665 8.112C131.665 8.72 131.556 9.27733 131.337 9.784C131.124 10.2853 130.804 10.704 130.377 11.04C129.956 11.3707 129.436 11.584 128.817 11.68C128.673 11.7013 128.524 11.7173 128.369 11.728C128.214 11.7387 128.081 11.744 127.969 11.744H124.841V16H123.417ZM124.841 10.392H127.921C128.022 10.392 128.137 10.3867 128.265 10.376C128.398 10.3653 128.524 10.3467 128.641 10.32C129.009 10.2347 129.308 10.08 129.537 9.856C129.772 9.62667 129.942 9.36 130.049 9.056C130.156 8.74667 130.209 8.432 130.209 8.112C130.209 7.792 130.156 7.48 130.049 7.176C129.942 6.86667 129.772 6.59733 129.537 6.368C129.308 6.13867 129.009 5.984 128.641 5.904C128.524 5.872 128.398 5.85333 128.265 5.848C128.137 5.83733 128.022 5.832 127.921 5.832H124.841V10.392ZM131.976 16L135.832 4.48H137.816L141.672 16H140.192L136.584 5.312H137.032L133.456 16H131.976ZM133.832 13.304V11.968H139.816V13.304H133.832ZM146.72 16V14.432C146.128 14.5333 145.557 14.5067 145.008 14.352C144.464 14.1973 143.976 13.928 143.544 13.544C143.117 13.1547 142.779 12.6533 142.528 12.04C142.277 11.4267 142.152 10.712 142.152 9.896C142.152 9.07467 142.277 8.35733 142.528 7.744C142.779 7.12533 143.117 6.62133 143.544 6.232C143.976 5.83733 144.464 5.56267 145.008 5.408C145.557 5.248 146.128 5.21867 146.72 5.32V4.48H148.136V5.32C148.728 5.21867 149.299 5.248 149.848 5.408C150.397 5.56267 150.885 5.83733 151.312 6.232C151.744 6.62133 152.085 7.12533 152.336 7.744C152.587 8.35733 152.712 9.07467 152.712 9.896C152.712 10.712 152.587 11.4267 152.336 12.04C152.085 12.6533 151.744 13.1547 151.312 13.544C150.885 13.928 150.397 14.1973 149.848 14.352C149.299 14.5067 148.728 14.5333 148.136 14.432V16H146.72ZM146.72 13.096V6.632C146.229 6.55733 145.789 6.592 145.4 6.736C145.016 6.87467 144.691 7.09867 144.424 7.408C144.163 7.712 143.963 8.07733 143.824 8.504C143.685 8.93067 143.616 9.39467 143.616 9.896C143.616 10.392 143.685 10.8507 143.824 11.272C143.963 11.6933 144.163 12.0533 144.424 12.352C144.691 12.6507 145.016 12.8667 145.4 13C145.789 13.1333 146.229 13.1653 146.72 13.096ZM148.136 13.096C148.632 13.1653 149.072 13.1333 149.456 13C149.84 12.8613 150.165 12.6453 150.432 12.352C150.699 12.0587 150.901 11.704 151.04 11.288C151.179 10.8667 151.248 10.4133 151.248 9.928C151.248 9.43733 151.179 8.97867 151.04 8.552C150.901 8.12 150.699 7.74933 150.432 7.44C150.165 7.12533 149.84 6.89333 149.456 6.744C149.072 6.59467 148.632 6.55733 148.136 6.632V13.096ZM163.196 16H161.756V6.992L155.748 16H154.308V4.48H155.748V13.48L161.756 4.48H163.196V16ZM165.433 16V4.48H166.857V9.888L171.897 4.48H173.689L168.457 10.072L174.097 16H172.257L166.857 10.368V16H165.433ZM174.414 16L178.27 4.48H180.254L184.11 16H182.63L179.022 5.312H179.47L175.894 16H174.414ZM176.27 13.304V11.968H182.254V13.304H176.27Z" fill="black"/>
</svg>
