<svg width="82" height="20" viewBox="0 0 82 20" fill="none" xmlns="http://www.w3.org/2000/svg">
<rect y="5" width="10" height="10" rx="3" fill="#151515"/>
<path opacity="0.7" d="M30.048 16V14.432C29.456 14.5333 28.8853 14.5067 28.336 14.352C27.792 14.1973 27.304 13.928 26.872 13.544C26.4453 13.1547 26.1067 12.6533 25.856 12.04C25.6053 11.4267 25.48 10.712 25.48 9.896C25.48 9.07467 25.6053 8.35733 25.856 7.744C26.1067 7.12533 26.4453 6.62133 26.872 6.232C27.304 5.83733 27.792 5.56267 28.336 5.408C28.8853 5.248 29.456 5.21867 30.048 5.32V4.48H31.464V5.32C32.056 5.21867 32.6267 5.248 33.176 5.408C33.7253 5.56267 34.2133 5.83733 34.64 6.232C35.072 6.62133 35.4133 7.12533 35.664 7.744C35.9147 8.35733 36.04 9.07467 36.04 9.896C36.04 10.712 35.9147 11.4267 35.664 12.04C35.4133 12.6533 35.072 13.1547 34.64 13.544C34.2133 13.928 33.7253 14.1973 33.176 14.352C32.6267 14.5067 32.056 14.5333 31.464 14.432V16H30.048ZM30.048 13.096V6.632C29.5573 6.55733 29.1173 6.592 28.728 6.736C28.344 6.87467 28.0187 7.09867 27.752 7.408C27.4907 7.712 27.2907 8.07733 27.152 8.504C27.0133 8.93067 26.944 9.39467 26.944 9.896C26.944 10.392 27.0133 10.8507 27.152 11.272C27.2907 11.6933 27.4907 12.0533 27.752 12.352C28.0187 12.6507 28.344 12.8667 28.728 13C29.1173 13.1333 29.5573 13.1653 30.048 13.096ZM31.464 13.096C31.96 13.1653 32.4 13.1333 32.784 13C33.168 12.8613 33.4933 12.6453 33.76 12.352C34.0267 12.0587 34.2293 11.704 34.368 11.288C34.5067 10.8667 34.576 10.4133 34.576 9.928C34.576 9.43733 34.5067 8.97867 34.368 8.552C34.2293 8.12 34.0267 7.74933 33.76 7.44C33.4933 7.12533 33.168 6.89333 32.784 6.744C32.4 6.59467 31.96 6.55733 31.464 6.632V13.096ZM42.3716 16.24C41.225 16.24 40.2516 15.9867 39.4516 15.48C38.6516 14.9733 38.041 14.2693 37.6196 13.368C37.2036 12.4667 36.9956 11.424 36.9956 10.24C36.9956 9.056 37.2036 8.01333 37.6196 7.112C38.041 6.21067 38.6516 5.50667 39.4516 5C40.2516 4.49333 41.225 4.24 42.3716 4.24C43.5236 4.24 44.4996 4.49333 45.2996 5C46.0996 5.50667 46.7076 6.21067 47.1236 7.112C47.5396 8.01333 47.7476 9.056 47.7476 10.24C47.7476 11.424 47.5396 12.4667 47.1236 13.368C46.7076 14.2693 46.0996 14.9733 45.2996 15.48C44.4996 15.9867 43.5236 16.24 42.3716 16.24ZM42.3716 14.88C43.2303 14.8853 43.945 14.6933 44.5156 14.304C45.0916 13.9093 45.521 13.3627 45.8036 12.664C46.0916 11.9653 46.2356 11.1573 46.2356 10.24C46.2356 9.31733 46.0916 8.50933 45.8036 7.816C45.521 7.12267 45.0916 6.58133 44.5156 6.192C43.945 5.80267 43.2303 5.60533 42.3716 5.6C41.513 5.59467 40.7983 5.78667 40.2276 6.176C39.6623 6.56533 39.2356 7.10933 38.9476 7.808C38.6596 8.50667 38.513 9.31733 38.5076 10.24C38.5023 11.1573 38.6436 11.9627 38.9316 12.656C39.2196 13.3493 39.649 13.8933 40.2196 14.288C40.7956 14.6773 41.513 14.8747 42.3716 14.88ZM49.3544 16V4.48H53.9064C54.0184 4.48 54.1517 4.48533 54.3064 4.496C54.461 4.50133 54.6104 4.51733 54.7544 4.544C55.3784 4.64 55.901 4.85333 56.3224 5.184C56.749 5.51467 57.069 5.93333 57.2824 6.44C57.4957 6.94133 57.6024 7.49867 57.6024 8.112C57.6024 8.72 57.493 9.27733 57.2744 9.784C57.061 10.2853 56.741 10.704 56.3144 11.04C55.893 11.3707 55.373 11.584 54.7544 11.68C54.6104 11.7013 54.461 11.7173 54.3064 11.728C54.1517 11.7387 54.0184 11.744 53.9064 11.744H50.7784V16H49.3544ZM50.7784 10.392H53.8584C53.9597 10.392 54.0744 10.3867 54.2024 10.376C54.3357 10.3653 54.461 10.3467 54.5784 10.32C54.9464 10.2347 55.245 10.08 55.4744 9.856C55.709 9.62667 55.8797 9.36 55.9864 9.056C56.093 8.74667 56.1464 8.432 56.1464 8.112C56.1464 7.792 56.093 7.48 55.9864 7.176C55.8797 6.86667 55.709 6.59733 55.4744 6.368C55.245 6.13867 54.9464 5.984 54.5784 5.904C54.461 5.872 54.3357 5.85333 54.2024 5.848C54.0744 5.83733 53.9597 5.832 53.8584 5.832H50.7784V10.392ZM59.1981 16V4.48H60.4941L64.8461 13.656L69.1741 4.48H70.4861V15.992H69.1341V7.608L65.2221 16H64.4621L60.5501 7.608V16H59.1981ZM71.9294 16L75.7854 4.48H77.7694L81.6254 16H80.1454L76.5374 5.312H76.9854L73.4094 16H71.9294ZM73.7854 13.304V11.968H79.7694V13.304H73.7854Z" fill="black"/>
</svg>
