<svg width="54" height="20" viewBox="0 0 54 20" fill="none" xmlns="http://www.w3.org/2000/svg">
<rect width="8" height="8" rx="2" transform="matrix(-1 0 0 1 8 6)" fill="#333333"/>
<path d="M25.12 16V4.48H31.736V5.656H26.296V9.656H30.776V10.824H26.296V16H25.12ZM32.2263 16L36.1943 4.48H37.7543L41.7223 16H40.4983L36.7303 5.136H37.1943L33.4503 16H32.2263ZM33.9943 13.208V12.104H39.9462V13.208H33.9943ZM51.9024 16.232L48.8304 13.176L49.6304 12.376L52.6864 15.432L51.9024 16.232ZM47.5184 16.24C46.3717 16.24 45.4037 15.9867 44.6144 15.48C43.825 14.968 43.2277 14.2613 42.8224 13.36C42.417 12.4587 42.2144 11.4187 42.2144 10.24C42.2144 9.06133 42.417 8.02133 42.8224 7.12C43.2277 6.21867 43.825 5.51467 44.6144 5.008C45.4037 4.496 46.3717 4.24 47.5184 4.24C48.6704 4.24 49.6384 4.496 50.4224 5.008C51.2117 5.51467 51.809 6.21867 52.2144 7.12C52.625 8.02133 52.8304 9.06133 52.8304 10.24C52.8304 11.4187 52.625 12.4587 52.2144 13.36C51.809 14.2613 51.2117 14.968 50.4224 15.48C49.6384 15.9867 48.6704 16.24 47.5184 16.24ZM47.5184 15.112C48.4197 15.112 49.1717 14.9067 49.7744 14.496C50.377 14.0853 50.8277 13.5147 51.1264 12.784C51.4304 12.048 51.5824 11.2 51.5824 10.24C51.5824 9.28 51.4304 8.43467 51.1264 7.704C50.8277 6.97333 50.377 6.40267 49.7744 5.992C49.1717 5.58133 48.4197 5.37333 47.5184 5.368C46.617 5.368 45.8677 5.57333 45.2704 5.984C44.673 6.39467 44.2224 6.968 43.9184 7.704C43.6197 8.43467 43.4677 9.28 43.4624 10.24C43.457 11.2 43.6037 12.0453 43.9024 12.776C44.2064 13.5013 44.6597 14.072 45.2624 14.488C45.865 14.8987 46.617 15.1067 47.5184 15.112Z" fill="#333333"/>
</svg>
