<svg width="124" height="28" viewBox="0 0 124 28" fill="none" xmlns="http://www.w3.org/2000/svg">
<path d="M2.624 3.252H6.176V24.532H2.624V8.436C2.624 8.052 2.816 7.668 3.136 7.476L3.2 7.444L2.944 7.028L2.4 7.412C2.24 7.508 2.08 7.54 1.92 7.572C1.568 7.636 1.216 7.668 0.864 7.668V4.564C1.824 4.564 2.624 3.988 2.624 3.252ZM19.7263 11.444C20.0463 11.444 20.3983 11.572 20.6543 11.828C22.0303 13.14 22.8943 15.06 22.8943 17.428C22.8943 22.068 19.5983 24.948 15.5663 24.948C11.5343 24.948 8.27025 22.068 8.27025 17.428C8.27025 15.06 9.10225 13.14 10.5103 11.828C10.7343 11.572 11.0863 11.444 11.4062 11.444H12.2383V10.996C11.7263 10.996 11.2783 10.708 11.0543 10.26C10.6703 9.556 10.4783 8.756 10.4783 7.892C10.4783 5.012 12.8463 2.708 15.7583 2.804C18.3823 2.9 20.5263 5.012 20.6543 7.636C20.7183 8.596 20.4943 9.524 20.0783 10.292C19.8223 10.74 19.3743 10.996 18.8943 10.996V11.444H19.7263ZM15.5663 5.908C14.7023 5.908 14.0303 6.804 14.0303 7.892C14.0303 9.012 14.7023 9.876 15.5663 9.876C16.4303 9.876 17.1343 9.012 17.1343 7.892C17.1343 6.804 16.4303 5.908 15.5663 5.908ZM15.5663 21.844C17.6463 21.844 19.3423 20.372 19.3423 17.428C19.3423 14.484 17.6463 12.98 15.5663 12.98C13.4863 12.98 11.7903 14.484 11.7903 17.428C11.7903 20.372 13.4863 21.844 15.5663 21.844ZM31.852 2.804C35.884 2.804 39.18 6.58 39.18 11.22V16.532C39.18 21.204 35.884 24.948 31.852 24.948C27.82 24.948 24.556 21.204 24.556 16.532V11.22C24.556 6.58 27.82 2.804 31.852 2.804ZM31.852 21.844C33.932 21.844 35.628 19.476 35.628 16.532V11.22C35.628 8.276 33.932 5.908 31.852 5.908C29.772 5.908 28.076 8.276 28.076 11.22V16.532C28.076 19.476 29.772 21.844 31.852 21.844ZM59.9145 2.804C63.9465 2.804 67.2425 6.58 67.2425 11.22V16.532C67.2425 21.204 63.9465 24.948 59.9145 24.948C55.8825 24.948 52.6185 21.204 52.6185 16.532V11.22C52.6185 6.58 55.8825 2.804 59.9145 2.804ZM59.9145 21.844C61.9945 21.844 63.6905 19.476 63.6905 16.532V11.22C63.6905 8.276 61.9945 5.908 59.9145 5.908C57.8345 5.908 56.1385 8.276 56.1385 11.22V16.532C56.1385 19.476 57.8345 21.844 59.9145 21.844ZM76.6958 2.804C80.7278 2.804 84.0238 6.58 84.0238 11.22V16.532C84.0238 21.204 80.7278 24.948 76.6958 24.948C72.6638 24.948 69.3997 21.204 69.3997 16.532V11.22C69.3997 6.58 72.6638 2.804 76.6958 2.804ZM76.6958 21.844C78.7758 21.844 80.4718 19.476 80.4718 16.532V11.22C80.4718 8.276 78.7758 5.908 76.6958 5.908C74.6158 5.908 72.9198 8.276 72.9198 11.22V16.532C72.9198 19.476 74.6158 21.844 76.6958 21.844ZM93.477 2.804C97.509 2.804 100.805 6.58 100.805 11.22V16.532C100.805 21.204 97.509 24.948 93.477 24.948C89.445 24.948 86.181 21.204 86.181 16.532V11.22C86.181 6.58 89.445 2.804 93.477 2.804ZM93.477 21.844C95.557 21.844 97.253 19.476 97.253 16.532V11.22C97.253 8.276 95.557 5.908 93.477 5.908C91.397 5.908 89.701 8.276 89.701 11.22V16.532C89.701 19.476 91.397 21.844 93.477 21.844ZM114.706 12.756C119.602 13.684 123.154 15.252 123.154 18.42C123.154 21.588 119.506 24.244 114.706 24.756V27.508H111.186V24.756C106.386 24.244 102.77 21.588 102.77 18.42C102.77 18.356 102.77 18.292 102.77 18.196H106.322C106.322 18.292 106.29 18.356 106.29 18.42C106.29 19.956 108.37 21.236 111.186 21.652V15.22C106.674 14.26 103.186 12.596 103.186 9.332C103.186 6.1 106.642 3.38 111.186 2.804V0.0519981H114.706V2.804C119.25 3.38 122.706 6.1 122.706 9.332H119.57C119.602 9.268 119.602 9.204 119.602 9.14C119.602 7.38 117.522 5.94 114.706 5.492V12.756ZM111.186 12.148V5.492C108.37 5.94 106.29 7.38 106.29 9.14C106.29 10.868 108.402 11.636 111.186 12.148ZM114.706 21.652C117.522 21.236 119.602 19.956 119.602 18.42C119.602 16.916 117.522 16.34 114.706 15.86V21.652Z" fill="black"/>
</svg>
