<svg width="15" height="9" viewBox="0 0 15 9" fill="none" xmlns="http://www.w3.org/2000/svg">
<path d="M0.752111 8V0.264003H3.94858C4.02379 0.264003 4.12049 0.267584 4.23868 0.274747C4.35687 0.278329 4.46611 0.289073 4.56639 0.306981C5.01407 0.375029 5.38296 0.52366 5.67306 0.752875C5.96675 0.982089 6.18343 1.27219 6.3231 1.62317C6.46636 1.97058 6.53799 2.35738 6.53799 2.78357C6.53799 3.41391 6.37862 3.95651 6.05986 4.41136C5.74111 4.86262 5.25224 5.14198 4.59325 5.24942L4.03991 5.29777H2.04682V8H0.752111ZM5.19494 8L3.66923 4.85188L4.98542 4.56178L6.66155 8H5.19494ZM2.04682 4.08902H3.89486C3.96649 4.08902 4.04707 4.08544 4.13661 4.07828C4.22615 4.07112 4.30852 4.05679 4.38373 4.0353C4.59862 3.98158 4.76695 3.88667 4.88872 3.75057C5.01407 3.61448 5.10182 3.46047 5.15196 3.28856C5.20568 3.11665 5.23254 2.94832 5.23254 2.78357C5.23254 2.61883 5.20568 2.4505 5.15196 2.27859C5.10182 2.10309 5.01407 1.9473 4.88872 1.8112C4.76695 1.67511 4.59862 1.5802 4.38373 1.52647C4.30852 1.50499 4.22615 1.49245 4.13661 1.48887C4.04707 1.48171 3.96649 1.47812 3.89486 1.47812H2.04682V4.08902ZM10.961 8.16117C10.345 8.16117 9.8024 8.03581 9.33323 7.78511C8.86763 7.53441 8.50232 7.18163 8.23729 6.72678C7.97584 6.27194 7.84512 5.7383 7.84512 5.12586V0.274747L9.15594 0.264003V5.09363C9.15594 5.38373 9.20429 5.64339 9.30099 5.8726C9.40127 6.10182 9.53558 6.29701 9.70391 6.45817C9.87224 6.61576 10.0656 6.73574 10.2841 6.81811C10.5026 6.90049 10.7282 6.94167 10.961 6.94167C11.201 6.94167 11.4284 6.90049 11.6433 6.81811C11.8618 6.73216 12.0552 6.61039 12.2235 6.4528C12.3918 6.29163 12.5243 6.09644 12.621 5.86723C12.7177 5.63801 12.7661 5.38015 12.7661 5.09363V0.264003H14.0769V5.12586C14.0769 5.7383 13.9444 6.27194 13.6794 6.72678C13.4179 7.18163 13.0526 7.53441 12.5834 7.78511C12.1178 8.03581 11.577 8.16117 10.961 8.16117Z" fill="black"/>
</svg>
