<svg width="34" height="37" viewBox="0 0 66 69" fill="none" xmlns="http://www.w3.org/2000/svg">
    <path d="M53.625 28.1612C53.625 47.1268 33 61.8779 33 61.8779C33 61.8779 12.375 47.1268 12.375 28.1612C12.375 22.5723 14.548 17.2123 18.4159 13.2604C22.2839 9.30842 27.5299 7.08824 33 7.08824C38.4701 7.08824 43.7161 9.30842 47.5841 13.2604C51.452 17.2123 53.625 22.5723 53.625 28.1612V28.1612Z" fill="#BDFFFA" stroke="#F4F7FE" stroke-width="4.125" stroke-linecap="round" stroke-linejoin="round"/>
    <path d="M33 36.5903C37.5563 36.5903 41.25 32.8165 41.25 28.1612C41.25 23.5059 37.5563 19.732 33 19.732C28.4437 19.732 24.75 23.5059 24.75 28.1612C24.75 32.8165 28.4437 36.5903 33 36.5903Z" fill="#151515" stroke="black" stroke-width="4.125" stroke-linecap="round" stroke-linejoin="round"/>
</svg>
